<svg xmlns="http://www.w3.org/2000/svg" viewBox="0 0 24 24" xmlns:v="https://vecta.io/nano"><path d="M19.5 14.25h-6.26c-.205 0-.4.084-.542.231l-5.74 6a.75.75 0 0 0 .542 1.268h12c1.241 0 2.25-1.01 2.25-2.25v-3c0-1.24-1.009-2.25-2.25-2.25Z" fill="#e73841"/><path d="m18.95 7.17-2.115-2.115a2.21 2.21 0 0 0-1.581-.667c-.606 0-1.174.232-1.604.662l-5.18 5.18a.75.75 0 0 0-.22.53v8.48a.75.75 0 0 0 1.28.53l9.42-9.42c.43-.43.665-.999.662-1.604a2.2 2.2 0 0 0-.662-1.577Z" fill="#fdbd22"/><rect width="7.5" height="19.5" x="2.25" y="2.25" rx="2.25" fill="#3595f9"/><circle cx="6" cy="18" r="1" fill="#a5c5e5"/></svg>