<svg width="1440" height="900" viewBox="0 0 1440 900" fill="none" xmlns="http://www.w3.org/2000/svg">
  <defs>
    <linearGradient id="bg" x1="0" y1="0" x2="1" y2="1">
      <stop offset="0%" stop-color="#110B2E" />
      <stop offset="50%" stop-color="#1B1C3F" />
      <stop offset="100%" stop-color="#0B344D" />
    </linearGradient>
    <linearGradient id="card" x1="0" y1="0" x2="1" y2="1">
      <stop offset="0%" stop-color="#FF1B8D" stop-opacity="0.95" />
      <stop offset="100%" stop-color="#6B5B95" stop-opacity="0.95" />
    </linearGradient>
    <linearGradient id="cardBlue" x1="0" y1="0" x2="1" y2="1">
      <stop offset="0%" stop-color="#00B4D8" stop-opacity="0.95" />
      <stop offset="100%" stop-color="#6DD3FF" stop-opacity="0.85" />
    </linearGradient>
    <linearGradient id="cardYellow" x1="0" y1="0" x2="1" y2="1">
      <stop offset="0%" stop-color="#FFD60A" stop-opacity="0.95" />
      <stop offset="100%" stop-color="#FFB347" stop-opacity="0.9" />
    </linearGradient>
    <filter id="shadow" x="-20" y="-20" width="200" height="200" filterUnits="userSpaceOnUse" color-interpolation-filters="sRGB">
      <feDropShadow dx="0" dy="18" stdDeviation="24" flood-color="#000" flood-opacity="0.18" />
    </filter>
  </defs>
  <rect width="1440" height="900" fill="url(#bg)" />
  <g opacity="0.35">
    <circle cx="240" cy="180" r="160" fill="#FF1B8D" />
    <circle cx="1260" cy="140" r="120" fill="#00B4D8" />
    <circle cx="1320" cy="720" r="140" fill="#FFD60A" />
  </g>
  <g transform="translate(400 200)">
    <rect x="0" y="0" width="280" height="340" rx="32" fill="url(#card)" filter="url(#shadow)" />
    <rect x="40" y="60" width="200" height="36" rx="18" fill="#fff" fill-opacity="0.2" />
    <rect x="40" y="120" width="160" height="20" rx="10" fill="#fff" fill-opacity="0.35" />
    <rect x="40" y="158" width="120" height="20" rx="10" fill="#fff" fill-opacity="0.2" />
    <rect x="40" y="196" width="180" height="20" rx="10" fill="#fff" fill-opacity="0.2" />
    <rect x="40" y="248" width="120" height="20" rx="10" fill="#FFD60A" fill-opacity="0.9" />
  </g>
  <g transform="translate(760 180)">
    <rect x="0" y="0" width="240" height="280" rx="28" fill="url(#cardBlue)" filter="url(#shadow)" />
    <rect x="36" y="46" width="170" height="28" rx="14" fill="#0B1F33" fill-opacity="0.3" />
    <rect x="36" y="96" width="140" height="18" rx="9" fill="#0B1F33" fill-opacity="0.3" />
    <rect x="36" y="126" width="120" height="18" rx="9" fill="#0B1F33" fill-opacity="0.18" />
    <rect x="36" y="176" width="150" height="54" rx="14" fill="#FF1B8D" fill-opacity="0.92" />
  </g>
  <g transform="translate(980 390)">
    <rect x="0" y="0" width="220" height="240" rx="26" fill="url(#cardYellow)" filter="url(#shadow)" />
    <rect x="32" y="44" width="156" height="24" rx="12" fill="#1F1F1F" fill-opacity="0.25" />
    <rect x="32" y="88" width="92" height="18" rx="9" fill="#1F1F1F" fill-opacity="0.2" />
    <rect x="32" y="126" width="132" height="18" rx="9" fill="#1F1F1F" fill-opacity="0.15" />
    <rect x="32" y="174" width="72" height="24" rx="12" fill="#6B5B95" fill-opacity="0.9" />
  </g>
  <g transform="translate(330 540)" opacity="0.9">
    <rect x="0" y="0" width="180" height="200" rx="24" fill="#181B3E" />
    <g transform="translate(32 32)" fill="#00B4D8">
      <rect x="0" y="0" width="32" height="32" rx="8" />
      <rect x="48" y="0" width="32" height="32" rx="8" fill="#FF1B8D" />
      <rect x="96" y="0" width="32" height="32" rx="8" fill="#FFD60A" />
      <rect x="0" y="48" width="32" height="32" rx="8" fill="#6B5B95" />
      <rect x="48" y="48" width="32" height="32" rx="8" fill="#00B4D8" />
      <rect x="96" y="48" width="32" height="32" rx="8" fill="#FF1B8D" />
    </g>
  </g>
  <text x="420" y="760" fill="#FFFFFF" fill-opacity="0.62" font-family="'Inter', 'Helvetica Neue', Arial, sans-serif" font-size="24" letter-spacing="0.1em">
    DESIGN SWISS KNIFE • PIXELMOJO
  </text>
</svg>
