<?xml version="1.0" encoding="UTF-8"?>
<svg id="Layer_1" xmlns="http://www.w3.org/2000/svg" xmlns:v="https://vecta.io/nano" version="1.1" viewBox="0 0 372 340">
  <!-- Generator: Adobe Illustrator 29.8.1, SVG Export Plug-In . SVG Version: 2.1.1 Build 2)  -->
  <defs>
    <style>
      .st0 {
        fill: #fdbd0c;
      }

      .st1 {
        fill: #d3e9cc;
      }

      .st2, .st3 {
        fill: #fff;
      }

      .st4 {
        fill: none;
        stroke: #000;
        stroke-linejoin: round;
        stroke-width: 4.92px;
      }

      .st5 {
        fill: #6db4dd;
      }

      .st6 {
        fill: #b9dcaf;
      }

      .st3 {
        isolation: isolate;
        opacity: .3;
      }
    </style>
  </defs>
  <path class="st3" d="M363.93,68.86c0-35.24-79.68-63.65-177.93-63.65S8.07,33.78,8.07,68.86s26.03,38.09,66.67,49.68c25.71-11.75,66.03-19.52,111.27-19.52s85.55,7.62,111.27,19.52c40.63-11.75,66.67-29.52,66.67-49.68Z"/>
  <path class="st5" d="M74.73,118.54c-18.57,8.57-29.68,19.21-29.68,30.79s22.06,30.79,56.19,40c19.84-9.05,50.48-14.76,84.76-14.76s64.92,5.71,84.76,14.76c33.97-9.21,56.19-23.65,56.19-40s-11.11-22.22-29.68-30.79c-30.48,8.73-69.21,13.97-111.27,13.97s-80.79-5.24-111.27-13.97h0Z"/>
  <path class="st2" d="M74.73,118.54c30.48,8.73,69.21,13.97,111.27,13.97s80.79-5.24,111.27-13.97c-25.71-11.75-66.03-19.52-111.27-19.52s-85.55,7.62-111.27,19.52Z"/>
  <path class="st1" d="M101.24,189.34c-14.6,6.67-23.33,14.92-23.33,24.13,0,14.44,22.22,27.14,55.08,33.81,13.81-5.24,32.54-8.57,53.02-8.57s39.21,3.17,53.02,8.57c32.86-6.67,55.08-19.36,55.08-33.81s-8.73-17.46-23.33-24.13c-23.65,6.35-52.86,10.16-84.76,10.16s-61.27-3.81-84.76-10.16Z"/>
  <path class="st6" d="M101.24,189.34c23.65,6.35,52.86,10.16,84.76,10.16s61.27-3.81,84.76-10.16c-19.84-9.05-50.48-14.76-84.76-14.76s-64.92,5.71-84.76,14.76Z"/>
  <g>
    <path class="st5" d="M132.98,247.11c-15.08,5.71-24.44,13.81-24.44,22.86s18.1,23.17,44.29,28.25c9.21-2.54,20.79-4.13,33.17-4.13s23.97,1.59,33.17,4.13c26.19-5.08,44.29-15.71,44.29-28.25s-9.52-17.14-24.44-22.86c-15.71,3.17-33.81,5.08-53.02,5.08s-37.46-1.9-53.02-5.08Z"/>
    <path class="st5" d="M132.98,247.11c15.71,3.17,33.81,5.08,53.02,5.08s37.46-1.9,53.02-5.08c-13.81-5.24-32.54-8.57-53.02-8.57s-39.21,3.17-53.02,8.57Z"/>
  </g>
  <g>
    <path class="st0" d="M152.83,298.22c-13.49,3.65-22.22,9.52-22.22,16.19,0,11.27,24.92,20.32,55.56,20.32s55.56-9.05,55.56-20.32-8.73-12.54-22.22-16.19c-10.16,1.9-21.27,3.02-33.17,3.02s-23.17-1.11-33.17-3.02h-.32Z"/>
    <path class="st0" d="M152.83,298.22c10.16,1.9,21.27,3.02,33.17,3.02s23.17-1.11,33.17-3.02c-9.21-2.54-20.79-4.13-33.17-4.13s-23.97,1.59-33.17,4.13Z"/>
  </g>
  <g>
    <path class="st4" d="M363.93,68.86c0,35.24-79.68,63.65-177.93,63.65S8.07,103.94,8.07,68.86,87.75,5.21,186,5.21s177.93,28.57,177.93,63.65Z"/>
    <path class="st4" d="M326.95,149.34c0,27.78-63.17,50.16-140.95,50.16s-140.95-22.54-140.95-50.16,63.17-50.16,140.95-50.16,140.95,22.54,140.95,50.16Z"/>
    <path class="st4" d="M294.25,213.46c0,21.43-48.41,38.73-108.25,38.73s-108.25-17.3-108.25-38.73,48.41-38.73,108.25-38.73,108.25,17.3,108.25,38.73Z"/>
    <path class="st4" d="M263.62,269.97c0,17.3-34.76,31.27-77.62,31.27s-77.62-13.97-77.62-31.27,34.76-31.27,77.62-31.27,77.62,13.97,77.62,31.27Z"/>
    <path class="st4" d="M241.56,314.57c0,11.27-24.92,20.32-55.56,20.32s-55.56-9.05-55.56-20.32,24.92-20.32,55.56-20.32,55.56,9.05,55.56,20.32Z"/>
  </g>
</svg>