<?xml version="1.0" encoding="UTF-8"?>
<svg id="layer" xmlns="http://www.w3.org/2000/svg" version="1.1" viewBox="0 0 601 224">
  <defs>
    <style>
      .cls-1 {
        fill: #95bb33;
      }

      .cls-1, .cls-2 {
        stroke-width: 0px;
      }

      .cls-2 {
        fill: #231f20;
      }
    </style>
  </defs>
  <path class="cls-1" d="M126.2,0C64.7,0,14.8,49.9,14.8,111.4s49.9,111.4,111.4,111.4,111.4-49.9,111.4-111.4S187.7,0,126.2,0M126.2,204.1c-51.2,0-92.8-41.5-92.8-92.8S74.9,18.5,126.2,18.5s92.8,41.5,92.8,92.8-41.5,92.8-92.8,92.8Z"/>
  <path class="cls-1" d="M171,139.5c-6.6,0-19.7,13.1-44.6,13.1s-28.5-13.4-28.5-13.4c0,0,21.2-13.3,31.9-23.5s23.8-27.4,23.8-43.4-12.2-24-22.5-24-24.2,3.3-40.2,20.5c-15.9,17.2-18.8,36.9-18.8,48.2s2.6,20.5,2.6,20.5c0,0-16.2,9.7-37.6,17.1C15.7,161.9,0,162.6,0,168.4s1.3,4,4.4,4c6.5,0,31.6-5.3,44.3-9.7s31.2-13.4,31.2-13.4c8.1,11.9,23.8,23.9,51.3,23.9s48.9-16.5,48.9-24.3c.2-4.1-2.9-9.4-9.1-9.4M101.5,87c12.7-19.4,27.6-23.6,32.9-19.2,5.2,4.2-2.3,21-14.8,34.3s-27,23.9-27,23.9c0,0-3.9-19.5,8.9-39Z"/>
  <rect class="cls-2" x="489.5" y="64.5" width="13.1" height="96.2"/>
  <rect class="cls-2" x="489.5" y="35.7" width="13.1" height="16.8"/>
  <path class="cls-2" d="M318.4,61.4c-31.2,0-48.5,25.4-48.5,50.1s13.1,52.1,51,52.1,42.7-28,43.2-30.9h-11.1s-3.1,20.5-32.5,20.5-37.4-24.5-38.7-36h84.1c-.1-.2,3-55.8-47.5-55.8M282.2,106.3s3.3-34.3,37.6-34.3,33.2,34.3,33.2,34.3h-70.8Z"/>
  <path class="cls-2" d="M459.5,64.5l-.2,15.1s-9.8-17.4-35.6-17.4-46.1,17.8-46.1,48.7,19.6,48.3,46.7,48.3,34.7-12.9,34.7-12.9c0,0,.4,4,.4,10.7s2.5,36.9-34.3,36.9-32.7-23.4-32.7-23.4h-11.4s0,34.7,44.7,34.7,44.9-34.5,44.9-56.3v-84.5h-11.1M423.9,148.8c-26.7,0-34.9-21.8-34.9-38.3s9.8-37.6,34.5-37.6,35.6,19.6,35.6,39.2c-.1,16.7-8.5,36.7-35.2,36.7Z"/>
  <path class="cls-2" d="M596.8,92.7h-12.9s1.8-20.7-27.4-20.7-22.5,8.5-22.5,15.8,6.7,15.6,33.1,19.6c26.5,4,32.9,16,32.9,27.8s-8.5,28-40.9,28-40-18.5-41.2-33.6h12.7s0,24.2,28.9,24.2,28-18,28-18c0,0,3.3-13.8-28.9-19.1-32.3-5.3-37.1-16-37.1-27.6s10.2-27.4,37.4-27.4,37.9,17.2,37.9,31"/>
</svg>