<?xml version="1.0" encoding="UTF-8"?>
<svg id="Layer_1" xmlns="http://www.w3.org/2000/svg" xmlns:v="https://vecta.io/nano" version="1.1" viewBox="0 0 372 340">
  <!-- Generator: Adobe Illustrator 29.8.1, SVG Export Plug-In . SVG Version: 2.1.1 Build 2)  -->
  <defs>
    <style>
      .st0 {
        stroke-linecap: round;
      }

      .st0, .st1, .st2 {
        stroke: #000;
        stroke-width: 4.96px;
      }

      .st0, .st2 {
        fill: none;
        stroke-linejoin: round;
      }

      .st1 {
        fill: #fdbd0c;
      }

      .st3 {
        fill: #d3e9cc;
      }

      .st4 {
        fill: #fde1ca;
      }

      .st5 {
        fill: #6db4dd;
      }

      .st6 {
        fill: #fff;
        isolation: isolate;
        opacity: .3;
      }
    </style>
  </defs>
  <path class="st5" d="M318.08,138.14c12.97-8.81,20.33-19.05,20.33-29.94,0-33.14-68.36-59.88-152.58-59.88v59.88c56.52,0,105.83,12.01,132.08,29.94h.16,0Z"/>
  <path class="st4" d="M53.92,138.14c-12.97,8.81-20.33,19.05-20.33,29.94s7.36,21.13,20.33,29.94c26.42-17.93,75.73-29.94,132.08-29.94-56.52,0-105.83-12.01-132.08-29.94ZM338.58,168.08c0-10.89-7.36-21.13-20.33-29.94-26.42,17.93-75.73,29.94-132.08,29.94,56.52,0,105.83,12.01,132.08,29.94,12.97-8.81,20.33-19.05,20.33-29.94Z"/>
  <path class="st3" d="M186,108.2c-56.52,0-105.83,12.01-132.08,29.94,26.42,17.93,75.73,29.94,132.08,29.94v-59.88Z"/>
  <path class="st6" d="M186,168.08c56.52,0,105.83-12.01,132.08-29.94-26.42-17.93-75.73-29.94-132.08-29.94v59.88h0Z"/>
  <path class="st5" d="M53.92,198.02c-12.97,8.81-20.33,19.05-20.33,29.94,0,33.14,68.36,59.88,152.58,59.88v-59.88c-56.52,0-105.83-12.01-132.08-29.94h-.16Z"/>
  <path class="st3" d="M186,227.96c56.52,0,105.83-12.01,132.08-29.94-26.42-17.93-75.73-29.94-132.08-29.94v59.88h0Z"/>
  <path class="st6" d="M186,168.08c-56.52,0-105.83,12.01-132.08,29.94,26.42,17.93,75.73,29.94,132.08,29.94v-59.88h0Z"/>
  <g>
    <ellipse class="st2" cx="186" cy="108.2" rx="152.58" ry="59.88"/>
    <ellipse class="st2" cx="186" cy="168.08" rx="152.58" ry="59.88"/>
    <ellipse class="st2" cx="186" cy="227.96" rx="152.58" ry="59.88"/>
    <path class="st0" d="M186,1.89v336.22"/>
  </g>
  <circle class="st1" cx="186" cy="168.24" r="18.41"/>
</svg>