<svg xmlns="http://www.w3.org/2000/svg" viewBox="0 0 24 24" id="layer">
  <path d="m18.628 14.673-1.83-1.07a.75.75 0 0 0-.378-.103H7.58a.74.74 0 0 0-.378.103l-1.831 1.07c-.697.409-1.114 1.092-1.114 1.827s.417 1.418 1.114 1.827l5.222 3.052c.427.248.916.372 1.406.372s.98-.125 1.409-.373l5.22-3.051c.697-.409 1.114-1.092 1.114-1.827s-.417-1.418-1.114-1.827" style="fill:#fdbd22;stroke-width:0"></path>
  <path d="m18.628 10.173-1.83-1.07A.75.75 0 0 0 16.42 9H7.58a.74.74 0 0 0-.378.103l-1.831 1.07c-.697.409-1.114 1.092-1.114 1.827s.417 1.418 1.114 1.827l5.222 3.052c.427.248.916.372 1.406.372s.98-.124 1.409-.373l5.221-3.051c.697-.409 1.114-1.092 1.114-1.827s-.417-1.418-1.114-1.827Z" style="stroke-width:0;fill:#5ecf7a"></path>
  <path d="m18.628 5.673-5.222-3.052a2.85 2.85 0 0 0-2.815 0l-5.22 3.051c-.697.409-1.114 1.092-1.114 1.827s.417 1.418 1.114 1.827l5.223 3.053c.418.242.905.37 1.406.37s.987-.128 1.409-.372l5.22-3.051c.697-.409 1.114-1.092 1.114-1.827s-.417-1.418-1.114-1.827Z" style="stroke-width:0;fill:#3595f9"></path>
</svg>
