<?xml version="1.0" encoding="UTF-8"?>
<svg id="lost-connection-due-to-error-404" xmlns="http://www.w3.org/2000/svg" version="1.1" viewBox="0 0 3457.3 2018.91">
  <!-- Generator: Adobe Illustrator 29.8.1, SVG Export Plug-In . SVG Version: 2.1.1 Build 2)  -->
  <defs>
    <style>
      .st0, .st1 {
        fill: #fff;
      }

      .st0, .st2 {
        fill-rule: evenodd;
      }

      .st3 {
        fill: #f9bd1d;
      }

      .st4 {
        fill: #dadee0;
      }

      .st2 {
        fill: #3b92ff;
      }

      .st5 {
        fill: #1d1d2c;
      }
    </style>
  </defs>
  <path class="st5" d="M1563.5,1993.41c-1.9,0-3.4-1.5-3.5-3.3-3.9-84.9,2.2-161,18-226.4,15.9-65.5,42-122,77.7-167.9,35.7-46,82-82.6,137.6-108.8,54.9-26,120.5-42.5,194.8-49.1,37.5-73.6,78.5-132.4,121.9-174.9,43.9-43,91.6-70.6,141.7-81.8,46.1-10.4,95.4-7.2,146.5,9.4,49.9,16.2,102.9,45.7,157.7,87.6,32-58.1,66.8-104.5,103.5-138.1,37.6-34.4,78.2-56.3,120.8-65,40.9-8.4,84.7-4.8,130,10.7,43.4,14.8,89.4,41,136.9,77.7.6-63.7,9-118.6,25.1-163.4,16.7-46.7,42.2-83.7,75.8-109.9,1.5-1.2,3.7-.9,4.9.6s.9,3.7-.6,4.9c-65.2,50.9-98.2,143.4-98.2,275v7.2l-5.7-4.5c-97.5-77-187.2-107.8-266.8-91.5-82.7,16.9-157.3,85.3-221.5,203.1l-2,3.6-3.3-2.5c-110.2-85.4-211.7-118.4-301.6-98.2-97.8,22-185.2,107.7-259.7,254.8l-.9,1.7-1.9.2c-296.5,25.8-439.1,209.2-423.6,545.1.1,1.9-1.4,3.6-3.3,3.7-.2,0-.3,0-.3,0Z"/>
  <path class="st5" d="M2909.9,1660.61c-.2,0-.5,0-.7-.1-1.9-.4-3.1-2.3-2.7-4.2,11.1-51.9,31.2-85.9,59.9-101,24.6-12.9,55.8-12.2,92.9,2.1.8-63.6,15.9-107.5,44.9-130.6,24.4-19.4,58.9-24.3,102.7-14.8,11.4-59.5,33.1-98.5,64.7-116,27.6-15.3,63.1-14.4,105.5,2.6,1.8.7,2.7,2.8,1.9,4.6-.7,1.8-2.8,2.7-4.6,1.9-40.3-16.2-73.8-17.2-99.5-3-30.3,16.8-51.1,55.3-61.9,114.7l-.7,3.6-3.6-.8c-43.3-10.1-77-5.8-100.3,12.7-28.1,22.3-42.3,66.1-42.3,130.2v5.2l-4.8-2c-37.1-15.4-68-16.8-91.8-4.3-26.8,14.1-45.7,46.5-56.4,96.3-.1,1.8-1.6,2.9-3.2,2.9Z"/>
  <path class="st5" d="M1212.9,1835.41h-.2c-1.9-.1-3.4-1.7-3.3-3.7,9.8-212.3-80.3-328.3-267.6-344.6l-1.9-.2-.9-1.7c-47.1-93-102.3-147.2-163.9-161-56.6-12.7-120.7,8.1-190.3,62.1l-3.3,2.5-2-3.6c-40.5-74.4-87.5-117.6-139.6-128.2-50.1-10.2-106.7,9.2-168.2,57.8l-5.7,4.5v-7.2c0-99.2-29.7-162.9-88.2-189.4-1.8-.8-2.5-2.9-1.7-4.6.8-1.8,2.9-2.5,4.6-1.7,30.7,13.9,54.1,37.6,69.5,70.3,14.5,30.9,22.2,70.7,22.9,118.4,61.1-46.7,117.7-65.2,168.3-54.8,27.2,5.6,53.2,19.5,77.2,41.5,23.1,21.1,45,50.3,65.2,86.6,34.4-26.2,67.8-44.7,99.2-54.9,32.7-10.6,64.2-12.6,93.6-6,32,7.2,62.5,24.8,90.5,52.3,27.5,27,53.5,64.2,77.2,110.7,47,4.3,88.5,14.8,123.3,31.2,35.4,16.7,64.9,40.1,87.8,69.4,22.8,29.3,39.4,65.3,49.6,107,10.1,41.6,13.9,90,11.4,144-.1,1.8-1.6,3.3-3.5,3.3Z"/>
  <path class="st5" d="M542.9,1710.11c-1.1,0-2.1-.5-2.8-1.4-55.9-77-115.4-99.1-181.7-67.7-1,.5-2.2.4-3.2-.1-1-.6-1.6-1.6-1.8-2.7-9.7-98.7-41.3-168.4-93.8-207.1-51-37.6-123.6-47.2-215.6-28.3-1.9.4-3.7-.8-4.1-2.7-.4-1.9.8-3.7,2.7-4.1,46.9-9.6,89.3-12,125.9-7.1,36.8,4.9,68.9,17.2,95.3,36.7,27.1,20,49,48.1,65.1,83.4,15.4,34,25.9,75.6,31,123.8,67.2-29.5,129.7-5.3,185.8,71.9,1.1,1.6.8,3.8-.8,4.9-.6.3-1.3.5-2,.5Z"/>
  <path class="st4" d="M677.9,461.71c-2,0-3.6-.6-4.8-1.8s-1.8-2.8-1.8-4.8v-47.4h-99c-2,0-3.6-.6-4.8-1.8s-1.8-2.8-1.8-4.8v-4.8c0-.4.2-1.5.6-3.3.4-1.8,1.3-3.7,2.7-5.7l91.2-130.5c2.4-3.4,6.1-5.1,11.1-5.1h12.3c2,0,3.6.6,4.8,1.8s1.8,2.8,1.8,4.8v131.4h27.3c2,0,3.6.6,4.8,1.8s1.8,2.8,1.8,4.8v4.8c0,2-.6,3.6-1.8,4.8s-2.8,1.8-4.8,1.8h-27.3v47.4c0,2-.6,3.6-1.8,4.8s-2.8,1.8-4.8,1.8h-5.7ZM589.4,389.71h81.9v-116.7l-81.9,116.7ZM827,464.71c-13.6,0-25-2.2-34-6.6-9.1-4.4-16.4-10.4-21.9-18.2-5.5-7.7-9.5-16.5-11.9-26.5s-3.8-20.5-4.2-31.5c0-5.4-.1-10.9-.1-16.5-.1-5.6-.1-11.3,0-17s.1-11.3.1-17c.2-11,1.5-21.5,4.1-31.5,2.5-10,6.5-18.8,12-26.5s12.8-13.7,21.9-18.2c9.1-4.4,20.4-6.6,34-6.6s24.9,2.2,34.1,6.6c9.1,4.4,16.4,10.5,21.9,18.2s9.5,16.6,12,26.5c2.5,10,3.8,20.5,4,31.5.2,5.6.3,11.3.3,17v17c0,5.6-.1,11.1-.3,16.5-.2,11-1.6,21.5-4,31.5-2.5,10-6.5,18.9-12,26.5-5.5,7.7-12.8,13.8-21.9,18.2-9.2,4.4-20.5,6.6-34.1,6.6ZM827,446.71c17.8,0,31-5.9,39.6-17.7s13.1-28,13.5-48.6c.2-5.8.3-11.3.3-16.4v-15.3c0-5.1-.1-10.3-.3-15.8-.4-20.2-4.9-36.3-13.5-48.3s-21.8-18-39.6-18-30.8,6-39.4,18c-8.7,12-13.3,28.1-13.7,48.3,0,5.4-.1,10.7-.1,15.8-.1,5.1-.1,10.2,0,15.3s.1,10.6.1,16.4c.4,20.6,5,36.8,13.7,48.6,8.6,11.8,21.7,17.7,39.4,17.7ZM1041.2,461.71c-2,0-3.6-.6-4.8-1.8s-1.8-2.8-1.8-4.8v-47.4h-99c-2,0-3.6-.6-4.8-1.8s-1.8-2.8-1.8-4.8v-4.8c0-.4.2-1.5.6-3.3.4-1.8,1.3-3.7,2.7-5.7l91.2-130.5c2.4-3.4,6.1-5.1,11.1-5.1h12.3c2,0,3.6.6,4.8,1.8,1.2,1.2,1.8,2.8,1.8,4.8v131.4h27.3c2,0,3.6.6,4.8,1.8,1.2,1.2,1.8,2.8,1.8,4.8v4.8c0,2-.6,3.6-1.8,4.8-1.2,1.2-2.8,1.8-4.8,1.8h-27.3v47.4c0,2-.6,3.6-1.8,4.8-1.2,1.2-2.8,1.8-4.8,1.8h-5.7ZM952.7,389.71h81.9v-116.7l-81.9,116.7Z"/>
  <path class="st5" d="M1253.2,927.91h-.6l-3.8-.6c-1.9-.3-3.2-2.1-2.9-4,.3-1.9,2.1-3.2,4-2.9l3.8.6c1.9.3,3.2,2.1,2.9,4-.3,1.7-1.8,2.9-3.4,2.9ZM1219.9,922.01c-.2,0-.4,0-.7-.1-5-.9-9.9-1.9-14.8-2.9-1.9-.4-3.1-2.2-2.8-4.1.4-1.9,2.2-3.1,4.1-2.8,4.8,1,9.7,1.9,14.7,2.8,1.9.4,3.1,2.2,2.8,4.1-.2,1.8-1.7,3-3.3,3ZM1175.8,913.01c-.2,0-.5,0-.8-.1-4.9-1.1-9.9-2.2-14.7-3.3-1.9-.4-3.1-2.3-2.6-4.2.4-1.9,2.3-3.1,4.2-2.6,4.8,1.1,9.7,2.2,14.6,3.3,1.9.4,3.1,2.3,2.7,4.2-.4,1.6-1.8,2.7-3.4,2.7ZM1131.9,902.71c-.3,0-.6,0-.9-.1-4.9-1.2-9.8-2.5-14.6-3.8-1.9-.5-3-2.4-2.5-4.3s2.4-3,4.3-2.5c4.8,1.3,9.6,2.5,14.5,3.8,1.9.5,3,2.4,2.5,4.3-.3,1.5-1.7,2.6-3.3,2.6ZM1088.5,890.81c-.3,0-.7,0-1-.1-4.9-1.4-9.7-2.9-14.4-4.4-1.8-.6-2.9-2.5-2.3-4.4s2.5-2.9,4.4-2.3c4.6,1.4,9.4,2.9,14.3,4.3,1.9.5,2.9,2.5,2.4,4.3-.5,1.6-1.9,2.6-3.4,2.6ZM1045.7,877.01c-.4,0-.8-.1-1.2-.2-4.9-1.8-9.7-3.5-14.1-5.3-1.8-.7-2.7-2.7-2-4.5s2.7-2.7,4.5-2c4.4,1.7,9.1,3.5,14,5.2,1.8.7,2.8,2.7,2.1,4.5-.5,1.4-1.9,2.3-3.3,2.3ZM1004.2,859.71c-.5,0-1-.1-1.5-.4-4.6-2.3-9.1-4.6-13.5-7-1.7-.9-2.3-3.1-1.4-4.8.9-1.7,3.1-2.3,4.8-1.4,4.2,2.3,8.7,4.6,13.2,6.8,1.7.9,2.5,2.9,1.6,4.7-.7,1.4-1.9,2.1-3.2,2.1ZM965.4,836.91c-.7,0-1.4-.2-2-.6-4.2-3-8.3-6.1-12.1-9.3-1.5-1.2-1.7-3.4-.5-4.9s3.4-1.7,4.9-.5c3.7,3,7.6,6.1,11.7,9,1.6,1.1,1.9,3.3.8,4.9-.6.9-1.7,1.4-2.8,1.4ZM932,806.91c-1,0-2-.4-2.7-1.2-3.4-4-6.6-8-9.4-12.1-1.1-1.6-.7-3.8.9-4.9,1.6-1.1,3.8-.7,4.9.9,2.7,3.9,5.7,7.8,9,11.6,1.3,1.5,1.1,3.7-.4,4.9-.6.6-1.4.8-2.3.8ZM934.4,769.01h0c-3.8,0-7.8-.2-11.8-.5-1.2-.1-2.3-.2-3.5-.3-1.9-.2-3.3-1.9-3.1-3.9.2-1.9,1.9-3.3,3.9-3.1,1.1.1,2.2.2,3.3.3,3.9.3,7.7.5,11.3.5,1.9,0,3.5,1.6,3.5,3.5-.1,1.9-1.6,3.5-3.6,3.5ZM909,768.61c-1.4,0-2.8-.9-3.3-2.3-1.8-4.9-3.2-10-4.2-14.9-.4-1.9.9-3.7,2.8-4.1,1.9-.4,3.7.9,4.1,2.8.9,4.6,2.2,9.3,3.9,13.9.7,1.8-.3,3.8-2.1,4.5-.4,0-.8.1-1.2.1ZM964,764.81c-1.5,0-2.8-.9-3.3-2.4-.6-1.8.3-3.8,2.2-4.4,4.7-1.6,8.9-3.7,12.4-6.3,1.6-1.1,3.8-.8,4.9.8,1.1,1.6.8,3.8-.8,4.9-4.1,3-8.9,5.4-14.2,7.2-.5.1-.8.2-1.2.2ZM890.4,761.31c-.4,0-.8-.1-1.2-.2-4.8-1.8-9.5-4-14.1-6.4-1.7-.9-2.3-3-1.4-4.7.9-1.7,3.1-2.3,4.7-1.4,4.2,2.3,8.7,4.3,13.2,6,1.8.7,2.7,2.7,2,4.5-.5,1.3-1.8,2.2-3.2,2.2ZM852.6,737.41c-.9,0-1.7-.3-2.4-1-3.6-3.5-7.2-7.2-10.5-11.2-1.2-1.5-1-3.7.4-4.9,1.5-1.2,3.7-1,4.9.4,3.2,3.8,6.5,7.4,10,10.7,1.4,1.3,1.5,3.5.1,4.9-.6.7-1.5,1.1-2.5,1.1ZM992.3,733.01h-.5c-1.9-.3-3.3-2-3-3.9.2-1.7.3-3.4.3-5.1,0-2.8-.3-5.7-.9-8.6-.4-1.9.8-3.7,2.7-4.1s3.7.8,4.1,2.7c.7,3.4,1,6.7,1,10,0,2-.1,4.1-.4,6.1-.1,1.7-1.6,2.9-3.3,2.9ZM904.3,724.31h-.6c-1.9-.3-3.2-2.1-2.9-4,.8-5.3,2.2-10.4,4-15.2.7-1.8,2.7-2.7,4.5-2s2.7,2.7,2,4.5c-1.6,4.4-2.9,9-3.6,13.8-.2,1.7-1.7,2.9-3.4,2.9ZM825.6,701.71c-1.2,0-2.4-.6-3.1-1.8-2.4-4.3-4.7-8.9-6.9-13.6-.8-1.8-.1-3.8,1.7-4.7,1.8-.8,3.8-.1,4.7,1.7,2.1,4.5,4.4,9,6.7,13.1.9,1.7.3,3.8-1.3,4.8-.7.4-1.3.5-1.8.5ZM978.2,691.71c-.9,0-1.9-.4-2.6-1.1-3.3-3.6-6.9-6.5-10.8-8.8-1.7-1-2.2-3.1-1.2-4.8,1-1.7,3.1-2.2,4.8-1.2,4.5,2.6,8.7,6,12.4,10.1,1.3,1.4,1.2,3.6-.2,4.9-.7.6-1.6.9-2.4.9ZM924.8,685.31c-1,0-2-.4-2.7-1.3-1.2-1.5-1-3.7.5-4.9,4.4-3.7,9.2-6.4,14.2-7.9,1.8-.6,3.8.4,4.4,2.3s-.4,3.8-2.3,4.4c-4.1,1.3-8.1,3.5-11.8,6.6-.7.6-1.5.8-2.3.8ZM807.7,660.51c-1.5,0-2.8-.9-3.3-2.4-1.6-4.7-3.1-9.5-4.5-14.5-.5-1.9.6-3.8,2.4-4.3s3.8.6,4.3,2.4c1.4,4.8,2.8,9.6,4.4,14.2.6,1.8-.4,3.8-2.2,4.4-.4.1-.8.2-1.1.2ZM796.2,617.01c-1.6,0-3.1-1.1-3.4-2.8-1-4.8-1.9-9.8-2.8-14.8-.3-1.9.9-3.7,2.9-4,1.9-.3,3.7.9,4,2.9.9,5,1.8,9.9,2.8,14.6.4,1.9-.8,3.7-2.7,4.1-.3,0-.6,0-.8,0Z"/>
  <path class="st5" d="M9.8,2019.21l5.9-6c109.3-111,229.8-211.8,358.2-299.6,129.6-88.6,268.3-164.8,412.3-226.4,146.6-62.7,300.2-110.9,456.3-143.1,160.3-33.1,325.3-49.9,490.4-49.9s329.2,16.7,489,49.6c155.7,32.1,308.9,80,455.2,142.3,143.6,61.2,282,136.9,411.4,225.1,128.2,87.3,248.5,187.6,357.7,298l5.9,6-3442.3,4ZM1732.9,1301.21c-646,0-1251.7,252.5-1706.3,711l3408.8-3.9c-454.3-456.1-1058.5-707.1-1702.5-707.1Z"/>
  <g>
    <g>
      <path class="st0" d="M1036.89,1100.21l61-18.57,97.95,224.4-123.55,42.2c-21.65-59.44-34.82-105.35-39.42-137.75-4.58-32.3-3.34-69.07,4.01-110.27Z"/>
      <path class="st5" d="M1070.14,1352.68l-1.18-3.24c-21.63-59.34-34.93-105.94-39.54-138.44-4.63-32.59-3.32-70.09,4-111.49l.34-2.09,66.02-20.07,100.79,230.7-130.43,44.63ZM1039.91,1102.93c-6.89,39.8-8.05,75.85-3.55,107.14,4.52,31.39,17.34,76.45,38.12,133.81l116.75-39.88-95.22-218.08-56.1,17Z"/>
      <path class="st0" d="M1036.89,1100.21c-72.58-2.74-115.67,12.58-129.25,46.15-8.56,21.11-7.73,81.68-14.4,144.09-9.22,86.51-17.22,179.32,54.84,199.3,124.25,34.35,226.36-81.65,154.85-154.94-47.69-48.76-69.72-127.02-66.04-234.6Z"/>
      <path class="st5" d="M992.96,1499.51c-14.73-.04-30.11-2-45.8-6.34-76.86-21.28-66.09-121.98-57.43-203.01,2.59-23.91,4.06-47.83,5.32-68.87,2.15-35.01,3.88-62.63,9.31-76.17,7.13-17.71,22.1-30.7,44.55-38.72,21.87-7.82,51.45-11.1,88.06-9.64l3.47.1-.1,3.47c-3.62,106.14,18.27,184.23,65.1,232.12,28.12,28.75,32.41,66.89,11.69,102.02-21.2,35.83-67.73,65.05-124.19,65.05ZM1020.79,1103.36c-61.13.01-98.11,14.86-109.98,44.27-5.01,12.46-6.78,41-8.79,73.95-1.35,21.16-2.8,45.17-5.37,69.18-8.32,78.34-18.75,175.83,52.34,195.48,72.91,20.15,136.78-12.64,162.03-55.48,19.08-32.3,15.05-67.24-10.61-93.58-24.15-24.68-41.98-57.28-53.11-96.75-10.83-38.4-15.51-84.49-13.99-136.95-4.28-.06-8.45-.13-12.51-.13Z"/>
      <path class="st5" d="M1103.33,1338.8c-.61,0-1.25-.19-1.83-.59-38.17-24.14-79.29-24.71-122.14-1.62-1.67.9-3.81.27-4.72-1.4-.9-1.67-.27-3.81,1.4-4.72,45.26-24.33,88.74-23.67,129.19,1.89,1.6,1.04,2.08,3.19,1.05,4.79-.63,1.03-1.74,1.63-2.96,1.64Z"/>
      <path class="st5" d="M947.85,1449.28c-2.84,0-5.51-.75-7.91-2.26-13.54-8.27-19.34-38.83-18.08-96.22,1.13-54.63,9.08-133.91,23.55-235.57.28-1.88,2.07-3.21,3.95-2.93s3.21,2.07,2.93,3.95c-14.4,101.44-22.31,180.42-23.4,234.73-1.43,66.15,7.26,85.54,14.77,90.1,1.37.87,5.69,3.46,14.98-3.15,32.48-23.09,57.69-38.5,82.91-44.07,25.69-5.75,51.7-1.09,84.38,14.97,1.77.81,2.44,2.92,1.64,4.69-.81,1.77-2.92,2.44-4.69,1.64-64.13-31.44-98.08-15.5-160.18,28.55-5.44,3.7-10.39,5.59-14.86,5.56Z"/>
    </g>
    <g>
      <path class="st0" d="M1399.11,590.12c64.32,22.35,116.74,58.18,157.41,107.65,60.96,74.23,64.79,119.23,122.88,179.71,108.82,113.32,16.05,175.07-59.32,238.15-54.46,45.68-204.25,125.63-449.3,240.04-30.74-42.34-54.83-90.4-72.12-144.34-17.35-53.81-29.82-106.2-37.57-157.02,66.14-10.66,121.01-19.57,164.5-26.67,206.42-33.41,217.15-120.01,213.39-130.34-6.46-17.76-87.03-81.23-149.42-252.63l109.55-54.56Z"/>
      <path class="st5" d="M1169.7,1360.01l-1.71-2.36c-30.86-42.4-55.26-91.31-72.59-145.34-17.35-53.81-29.93-106.8-37.68-157.62l-.51-3.43,167.93-27.18c140.18-22.72,186.79-69.8,202.09-95.9,9.13-15.56,9.44-27.27,8.52-29.81-1.37-3.76-7.51-10.99-15.91-20.92-27.95-32.93-86.06-101.38-133.5-231.71l-1.06-2.91,113.6-56.57,1.34.47c64.58,22.47,118.09,58.97,158.99,108.78,29.02,35.3,44.92,63.47,60.31,90.85,16.56,29.41,32.18,57.14,62.5,88.67,35.98,37.45,52.44,71.58,50.56,104.4-2.98,50.57-49.64,89.05-94.84,126.25-5.07,4.19-10.34,8.44-15.37,12.73-54.49,45.59-205.93,126.57-450.11,240.45l-2.56,1.15ZM1065.13,1057.22c7.64,49.36,20.09,100.81,36.86,153.02,16.8,52.31,40.34,99.72,69.94,140.98,242.05-113,392.05-193.24,445.9-238.28,5.04-4.28,10.3-8.54,15.37-12.73,43.96-36.22,89.51-73.65,92.32-121.18,1.79-30.77-14.16-63.17-48.64-99.14-31-32.24-46.76-60.35-63.55-90.1-15.26-27.01-30.99-55.02-59.62-89.83-39.76-48.42-91.79-84.08-154.49-106.06l-105.4,52.51c46.81,127.16,103.69,194.25,131.12,226.62,9.64,11.28,15.43,18.12,17.24,23.1s.95,18.7-9.02,35.74c-8.07,13.79-25.01,34.22-59.78,53.58-36.83,20.43-86.33,35.89-147.24,45.72l-161,26.04Z"/>
    </g>
  </g>
  <g>
    <g>
      <path class="st0" d="M1466.9,273.91c-14.8-28.5-48.8-42.4-79.9-31.1-32.3,11.8-49.6,46.5-40.3,79.1l120.2-48Z"/>
      <path class="st5" d="M1344.5,326.61l-1.1-3.7c-9.9-34.5,8.7-71.1,42.4-83.4,32.2-11.7,68.4,2.4,84.2,32.8l1.8,3.4-127.3,50.9ZM1409.2,242.41c-7,0-14.1,1.2-20.9,3.7-29,10.6-45.6,41.3-39,71.1l112.7-45.1c-11.4-18.7-31.7-29.7-52.8-29.7Z"/>
      <g>
        <path class="st0" d="M1436.3,385.11c72.5-26.4,123.5-69.4,113.9-95.9s-76.3-26.6-148.8-.2c-72.5,26.4-123.5,69.4-113.9,95.9s76.3,26.7,148.8.2Z"/>
        <path class="st5" d="M1338.5,408.41h-.2c-29.7,0-48.9-7.9-54.1-22.3-10.5-28.8,40.5-72.9,116-100.4,35.4-12.9,70.5-20,99-20h.2c29.7,0,48.9,7.9,54.1,22.3,10.5,28.8-40.5,72.9-116,100.4-35.4,12.9-70.5,20-99,20ZM1499.1,272.71c-27.7,0-61.9,6.9-96.6,19.6-34.7,12.6-65.5,29.4-86.7,47.3-20,16.9-29.1,32.9-25.1,44.1,4.1,11.2,21.4,17.6,47.5,17.7h.2c27.7,0,61.9-6.9,96.6-19.6,34.7-12.6,65.5-29.4,86.7-47.3,20-16.9,29.1-32.9,25.1-44.1-4.1-11.2-21.4-17.6-47.5-17.7,0,0-.1,0-.2,0Z"/>
      </g>
    </g>
    <circle class="st1" cx="1389.55" cy="445.61" r="91.7"/>
    <path class="st5" d="M1389.75,540.81c-5.6,0-11.1-.5-16.7-1.5-51.7-9.1-86.3-58.6-77.2-110.2,4.4-25,18.3-46.8,39.1-61.4,20.8-14.6,46.1-20.2,71.1-15.8h0c51.7,9.1,86.3,58.6,77.2,110.2-4.4,25-18.3,46.8-39.1,61.4-16.2,11.4-35,17.3-54.4,17.3ZM1389.35,357.41c-17.9,0-35.4,5.5-50.4,16-19.3,13.5-32.2,33.7-36.3,56.9-8.4,47.9,23.6,93.7,71.5,102.1,23.2,4.1,46.6-1.1,65.9-14.6s32.2-33.7,36.3-56.9c8.4-47.9-23.6-93.7-71.5-102.1h0c-5.1-.9-10.3-1.4-15.5-1.4Z"/>
    <circle class="st1" cx="1429.45" cy="359.61" r="58.5"/>
    <path class="st5" d="M1429.65,421.71c-3.6,0-7.3-.3-10.9-1-16.3-2.9-30.5-11.9-40.1-25.5-9.5-13.6-13.2-30-10.3-46.4s11.9-30.5,25.5-40.1c13.6-9.5,30-13.2,46.4-10.3,16.3,2.9,30.5,11.9,40.1,25.5,9.5,13.6,13.2,30,10.3,46.4-2.9,16.3-11.9,30.5-25.5,40.1-10.6,7.4-22.9,11.3-35.5,11.3ZM1429.35,304.61c-11.2,0-22.1,3.4-31.5,10-12,8.4-20.1,21.1-22.6,35.5s.7,29.1,9.1,41.1c8.4,12,21.1,20.1,35.5,22.6,14.5,2.6,29.1-.7,41.1-9.1,12-8.4,20.1-21.1,22.6-35.5,2.6-14.5-.7-29.1-9.1-41.1-8.4-12-21.1-20.1-35.5-22.6-3.1-.7-6.4-.9-9.6-.9Z"/>
    <path class="st5" d="M1407.55,375.31c-3.6,0-7.3-.3-10.9-1-10.3-1.8-20-6.2-28.1-12.7l4.4-5.5c7.2,5.8,15.8,9.7,24.9,11.3,29.9,5.3,58.5-14.8,63.8-44.7.4-2.4.7-4.9.8-7.4l7,.3c-.1,2.8-.4,5.6-.9,8.3-2.9,16.3-11.9,30.5-25.5,40.1-10.5,7.5-22.8,11.3-35.5,11.3Z"/>
    <path class="st5" d="M1434.45,392.91c-.4,0-.9-.1-1.3-.3-1.8-.7-2.6-2.8-1.9-4.6,2.9-7.1,6.9-11.6,11.9-13.5,4.7-1.8,10.1-1.2,16.1,1.8,1.7.9,2.4,3,1.6,4.7-.9,1.7-3,2.4-4.7,1.6-4.2-2.1-7.7-2.6-10.5-1.5-3.1,1.2-5.8,4.4-7.9,9.6-.6,1.3-1.9,2.2-3.3,2.2Z"/>
  </g>
  <g>
    <path class="st0" d="M1308.1,761.71c-17.2,141.5-1.5,240.7,47.3,297.5s255.9,195.3,621.3,415.7l145.6-296.8c-147.5-54.9-250.3-94.6-308.4-119-155.9-65.4-261.3-121.7-298.5-189.4l-76.4-112.8-130.9,4.8Z"/>
    <path class="st5" d="M1978.2,1479.91l-3.3-2c-357.8-215.7-567.1-359.5-622.4-427.5-27.7-34-43.9-71.1-51.1-116.8-7-44.3-6.1-97.4,3.1-172.4l.4-3,133.9-4.9c2-.1,3.6,1.4,3.6,3.4.1,1.9-1.4,3.6-3.4,3.6l-127.9,4.8c-17.2,143.6-4.8,217.3,46.9,280.9,54.5,67.1,262.2,209.7,617.3,423.9l142.2-289.9c-18.6-6.9-37-13.6-55-20.3-150.6-55.4-280.7-103.3-379.7-154.8-52.4-27.2-93.3-54-125.1-81.9-34.8-30.5-59-62.3-73.8-97.4-.8-1.8.1-3.8,1.9-4.6,1.8-.8,3.8.1,4.6,1.9,27.4,64.8,89.6,120.6,195.7,175.8,98.6,51.3,228.5,99.1,378.9,154.5,19.2,7.1,38.7,14.3,58.6,21.6l3.6,1.3-149,303.8Z"/>
  </g>
  <path class="st2" d="M1265.1,456.61c42-27.6,94.3-38.1,156.8-31.3,93.8,10.2,121-77.8,224.5-47.9,69,20,54.9,155.2-42.4,405.7l-300.3,13.9-38.6-340.4Z"/>
  <path class="st2" d="M1665.9,388.61c16.8,10.4,41.3,33.1,73.4,68.1s68,78.2,107.9,129.7l169.5-92.7,53.5,212.4-200.5,75c-32,12-68,3.1-90.9-22.3l-154.7-172.4h0l41.8-197.8ZM1265.1,456.61c-36.7,27.4-76,77-118,148.7-63,107.7-63.8,234.8,80.7,241.4,96.3,4.4,210-18.6,341-69.1l-70.2-209.8-194.6,74.2-38.9-185.4Z"/>
  <path class="st0" d="M1575.5,775.71c26.8-9.8,31.6-64.3,10.7-121.8s-59.7-96.2-86.5-86.5c-26.8,9.8-31.6,64.3-10.7,121.8,21,57.5,59.7,96.3,86.5,86.5Z"/>
  <path class="st5" d="M1566.8,780.71c-12.1,0-25.7-7-39.2-20.5-16.7-16.7-31.6-41.5-41.8-69.8-10.3-28.3-14.8-56.8-12.8-80.3,2.1-24.4,11.2-40.8,25.5-46s31.8,1.5,49.1,18.8c16.7,16.7,31.6,41.5,41.8,69.8,10.3,28.3,14.8,56.8,12.8,80.3-2.1,24.4-11.2,40.8-25.5,46h0c-3.1,1.1-6.5,1.7-9.9,1.7ZM1508.5,569.41c-2.7,0-5.2.4-7.6,1.3-11.6,4.2-19.1,18.4-21,40-2,22.5,2.4,50,12.4,77.3,10,27.4,24.2,51.2,40.2,67.2s30.2,21.4,41.8,17.2h0c11.6-4.2,19.1-18.4,21-40,2-22.5-2.4-50-12.4-77.3-10-27.4-24.2-51.2-40.2-67.2-12.1-12.2-24-18.5-34.2-18.5Z"/>
  <path class="st5" d="M1303.7,640.81c-.9,0-1.7-.3-2.4-.9-1-.9-1.4-2.2-1-3.5l20-77.3c.5-1.9,2.4-3,4.3-2.5s3,2.4,2.5,4.3l-18.4,70.8,182.8-65.9c1.8-.7,3.8.3,4.5,2.1s-.3,3.8-2.1,4.5l-189.1,68.2c-.3.1-.7.2-1.1.2Z"/>
  <g>
    <polygon class="st0" points="1592.3 387.91 1743.5 439.61 1820.5 336.11 1918.9 387.91 1991.9 287.91 2087.3 374.31 2087.3 816.81 1973.9 750.01 1890.2 838.11 1795.4 770.41 1704.9 863.91 1572.3 816.81 1592.3 387.91"/>
    <path class="st5" d="M1704.9,867.41c-.4,0-.8-.1-1.2-.2l-132.6-47.1c-1.5-.5-2.4-1.9-2.3-3.5l20-429c.1-1.1.6-2.1,1.5-2.7s2.1-.8,3.1-.4l148.7,50.9,75.5-101.4c1-1.4,2.9-1.8,4.4-1l95.7,50.3,71.3-97.5c.6-.8,1.5-1.3,2.5-1.4,1-.1,2,.2,2.7.9l95.4,86.4c.7.7,1.2,1.6,1.2,2.6v442.6c0,1.3-.7,2.4-1.8,3s-2.4.6-3.5,0l-111-65.5-81.8,86.1c-1.2,1.3-3.2,1.5-4.6.4l-92.3-65.9-88.4,91.3c-.6.7-1.5,1.1-2.5,1.1ZM1576,814.41l128,45.4,88.9-91.9c1.2-1.2,3.1-1.4,4.5-.4l92.3,65.9,81.6-85.9c1.1-1.2,2.9-1.4,4.3-.6l108.2,63.8v-434.9l-91.4-82.7-70.7,96.8c-1,1.4-2.9,1.8-4.5,1l-95.7-50.3-75.2,101c-.9,1.2-2.5,1.7-3.9,1.2l-146.7-50.2-19.7,421.8Z"/>
    <path class="st0" d="M1646.3,796.91c1.1-62.8,24.6-100,70.4-111.4,68.8-17.2,143.3-15.8,166.3-137.9,15.4-81.4,73.1-125,173.3-130.7l-410,380Z"/>
    <path class="st5" d="M1646.3,800.41h0c-2,0-3.5-1.6-3.5-3.6.1-5.2.3-10.3.7-15.2.2-1.9,1.8-3.4,3.8-3.2,1.9.2,3.4,1.8,3.2,3.8-.4,4.7-.6,9.7-.7,14.8,0,1.9-1.6,3.4-3.5,3.4ZM1651.9,755.91c-.3,0-.6,0-.9-.1-1.9-.5-3-2.4-2.5-4.3,1.4-5.1,3-10.1,4.8-14.6.7-1.8,2.8-2.7,4.5-2,1.8.7,2.7,2.8,2,4.5-1.7,4.3-3.2,9-4.5,13.8-.4,1.6-1.8,2.7-3.4,2.7ZM1671.8,715.91c-.8,0-1.6-.3-2.3-.8-1.5-1.3-1.7-3.5-.4-4.9,3.4-4,7.2-7.7,11.2-10.9,1.5-1.2,3.7-1,4.9.5s1,3.7-.5,4.9c-3.7,3-7.1,6.3-10.2,10-.8.8-1.8,1.2-2.7,1.2ZM1708.7,691.31c-1.5,0-2.8-.9-3.3-2.4-.6-1.8.4-3.8,2.2-4.4,2.7-.9,5.5-1.7,8.3-2.4,2.2-.5,4.3-1.1,6.5-1.6,1.9-.4,3.8.7,4.2,2.6s-.7,3.8-2.6,4.2c-2.1.5-4.3,1-6.4,1.5-2.7.7-5.3,1.4-7.8,2.3-.3.2-.7.2-1.1.2ZM1752.5,681.01c-1.6,0-3.1-1.1-3.4-2.8-.4-1.9.8-3.8,2.7-4.2,5.7-1.2,10.4-2.3,14.5-3.3,1.9-.5,3.8.7,4.2,2.6.5,1.9-.7,3.8-2.6,4.2-4.2,1-8.9,2.1-14.7,3.4-.2.1-.4.1-.7.1ZM1795.9,669.11c-1.4,0-2.8-.9-3.3-2.3-.7-1.8.2-3.8,2.1-4.5,4.7-1.8,9.3-3.7,13.5-5.7,1.7-.8,3.8-.1,4.7,1.6.8,1.7.1,3.8-1.6,4.7-4.4,2.1-9.1,4.2-14.1,6-.5.1-.9.2-1.3.2ZM1834.8,647.11c-1,0-2-.4-2.7-1.2-1.2-1.5-1.1-3.7.4-4.9,3.7-3.1,7.2-6.5,10.4-10.1,1.3-1.4,3.5-1.5,4.9-.2s1.5,3.5.2,4.9c-3.5,3.8-7.2,7.4-11.1,10.7-.5.5-1.3.8-2.1.8ZM1862.7,612.21c-.6,0-1.1-.1-1.7-.4-1.7-.9-2.3-3-1.4-4.7,2.3-4.1,4.4-8.6,6.3-13.2.8-1.8,2.8-2.6,4.6-1.9,1.8.8,2.6,2.8,1.9,4.6-2,4.8-4.3,9.4-6.6,13.8-.7,1.1-1.9,1.8-3.1,1.8ZM1878.7,570.31c-.3,0-.6,0-.9-.1-1.9-.5-3-2.4-2.5-4.3,1.2-4.6,2.3-9.5,3.4-14.4.4-1.9,2.2-3.1,4.1-2.7,1.9.4,3.1,2.2,2.7,4.1-1,5.1-2.2,10-3.4,14.8-.4,1.6-1.8,2.6-3.4,2.6ZM1889.3,526.71c-.4,0-.7-.1-1.1-.2-1.8-.6-2.8-2.6-2.2-4.4,1.6-4.9,3.5-9.7,5.5-14.3.8-1.8,2.8-2.6,4.6-1.8s2.6,2.8,1.8,4.6c-1.9,4.4-3.7,9-5.2,13.7-.6,1.4-1.9,2.4-3.4,2.4ZM1909.3,486.61c-.7,0-1.4-.2-2-.7-1.6-1.1-1.9-3.3-.8-4.9,3-4.2,6.2-8.2,9.6-12,1.3-1.4,3.5-1.6,4.9-.3s1.6,3.5.3,4.9c-3.2,3.6-6.3,7.4-9.1,11.4-.7,1.1-1.8,1.6-2.9,1.6ZM1941.1,455.01c-1.1,0-2.2-.5-2.9-1.5-1.1-1.6-.8-3.8.8-4.9,4.1-2.9,8.4-5.7,12.9-8.2,1.7-1,3.8-.4,4.8,1.3s.4,3.8-1.3,4.8c-4.3,2.4-8.4,5.1-12.3,7.9-.6.4-1.3.6-2,.6ZM1980.9,434.51c-1.4,0-2.8-.9-3.3-2.3-.7-1.8.3-3.8,2.1-4.5,4.7-1.7,9.6-3.2,14.5-4.6,1.9-.5,3.8.6,4.3,2.4.5,1.9-.6,3.8-2.4,4.3-4.8,1.3-9.5,2.9-14,4.5-.4.2-.8.2-1.2.2ZM2024.5,423.71c-1.7,0-3.2-1.2-3.5-3-.3-1.9,1-3.7,2.9-4,4.9-.8,9.9-1.4,15-2,1.9-.2,3.6,1.2,3.8,3.1.2,1.9-1.2,3.6-3.1,3.8-5,.5-9.9,1.2-14.7,1.9,0,.2-.2.2-.4.2Z"/>
    <g>
      <path class="st0" d="M1501,593.11c7.2-22.3,18.5-38.3,33.8-47.7,23-14.2,18.5-66.4,48-66.4,19.7,0,25.1,26.5,16.2,79.6,33-3.9,61.5-13.4,85.5-28.5,36-22.7,44.2,25.6,26.8,39,17.3,8.3,19.4,22.4,6.5,42.2,15.7,11.1,16.6,26.2,2.7,45.4,12.3,12.4,11.4,26.3-2.7,41.8s-77.8,33.5-191.2,54.4c-35.2-44.4-51.5-90.6-49-138.6l23.4-21.2Z"/>
      <path class="st5" d="M1525.1,756.71l-1.3-1.6c-35.6-44.9-52.3-92.3-49.7-141l.1-1.4,23.8-21.6c7.5-22.6,19.2-39,35-48.7,9-5.6,13.6-18.6,18.1-31.2,6.2-17.6,12.7-35.8,31.8-35.8,6.3,0,11.5,2.3,15.4,6.9,9.2,10.9,10.9,34.5,5,72.1,30.4-4.1,57.1-13.3,79.4-27.4,21.9-13.9,32.8-1.8,35.6,2.2,7.7,11,6.7,28.9-1.2,39,6.2,3.9,10.1,8.8,11.7,14.5,2.2,7.7,0,17-6.3,27.6,6.2,5.1,9.9,11,11,17.7,1.4,8.4-1.5,17.9-8.5,28.3,8.4,9.7,13.3,24.8-4.6,44.5-14.8,16.2-78,34.4-193.2,55.7l-2.1.2ZM1481,615.91c-2,45.8,13.8,90.6,47,133.2,110.8-20.5,173.8-38.4,187.2-53.1,12.9-14.2,13.8-25.9,2.8-37l-2.1-2.1,1.8-2.4c7.1-9.7,10.1-18.3,8.9-25.4-.9-5.7-4.5-10.6-10.8-15.1l-2.8-1.9,1.8-2.8c6.5-10,8.9-18.3,7.1-24.7-1.4-5.1-5.4-9.1-12.3-12.4l-5.1-2.5,4.5-3.5c8.2-6.3,10-23.6,3.4-33-5.3-7.5-14.6-7.6-26.2-.3-24.3,15.4-53.6,25.1-87,29.1l-4.6.5.8-4.6c7.8-46.8,2.8-64.5-2.7-71-2.5-3-5.8-4.5-10.1-4.5-14.1,0-19.2,14.4-25.2,31.2-4.9,13.7-9.9,27.9-21,34.8-14.5,9-25.4,24.4-32.3,45.8l-.3.9-22.8,20.8Z"/>
      <path class="st5" d="M1628.2,609.31c-1.5,0-3-1-3.4-2.6-.5-1.9.6-3.8,2.5-4.3,30.6-8.1,57.8-20.2,80.9-35.7,1.6-1.1,3.8-.7,4.9.9,1.1,1.6.7,3.8-.9,4.9-23.7,16-51.7,28.3-83,36.7-.4,0-.7.1-1,.1ZM1634.6,654.01c-1.5,0-3-1-3.4-2.6-.5-1.9.6-3.8,2.5-4.3,30.6-8.1,57.8-20.1,80.9-35.7,1.6-1.1,3.8-.7,4.9.9,1.1,1.6.7,3.8-.9,4.9-23.7,16-51.7,28.3-83,36.7-.4,0-.7.1-1,.1Z"/>
      <path class="st5" d="M1669.9,684.81c-1.4,0-2.7-.9-3.3-2.3-.7-1.8.2-3.8,2-4.5,12.4-4.7,29.7-13.6,51.4-26.3,1.7-1,3.8-.4,4.8,1.2,1,1.7.4,3.8-1.2,4.8-22,13-39.7,22-52.5,26.9-.4.2-.8.2-1.2.2Z"/>
    </g>
    <circle class="st1" cx="1851.8" cy="461.41" r="16.5"/>
    <path class="st5" d="M1851.8,481.41c-11,0-20-9-20-20s9-20,20-20,20,9,20,20-8.9,20-20,20ZM1851.8,448.41c-7.2,0-13,5.8-13,13s5.8,13,13,13,13-5.8,13-13-5.8-13-13-13Z"/>
    <g>
      <circle class="st1" cx="1946.8" cy="686.41" r="16.5"/>
      <path class="st5" d="M1946.8,706.41c-11,0-20-9-20-20s9-20,20-20,20,9,20,20-8.9,20-20,20ZM1946.8,673.41c-7.2,0-13,5.8-13,13s5.8,13,13,13,13-5.8,13-13-5.8-13-13-13Z"/>
    </g>
    <g>
      <path class="st5" d="M1765.5,611.41c-.8,0-1.5-.2-2.2-.8-1.5-1.2-1.8-3.4-.6-4.9l20.7-26c1.2-1.5,3.4-1.8,4.9-.6s1.8,3.4.6,4.9l-20.7,26c-.7.9-1.7,1.4-2.7,1.4Z"/>
      <path class="st5" d="M1788.3,609.41c-.8,0-1.6-.3-2.3-.9l-25-22c-1.4-1.3-1.6-3.5-.3-4.9,1.3-1.5,3.5-1.6,4.9-.3l25,22.1c1.4,1.3,1.6,3.5.3,4.9-.6.7-1.6,1.1-2.6,1.1Z"/>
    </g>
  </g>
  <g>
    <path class="st0" d="M2252.3,532.79c-11.4-14.5-35.4-20.8-69.2,11.6-30.2-51.8-59.7-61.3-88.5-28.4-19.6-12.1-35.3-4.2-47.2,23.9-17.1-6.7-28,4-33,32.1-2.5,14.5,7.5,37.4,28.1,78.2.9,1.8,215.6-110,209.8-117.4Z"/>
    <path class="st5" d="M2042.7,653.79c-1.3,0-2.6-.8-3.2-1.9-21.8-43.3-31.1-65.1-28.4-80.3,3.2-18.4,8.9-29.6,17.5-34.4,4.9-2.8,10.7-3.3,17-1.4,6.9-15.3,15.1-24.3,24.9-27.4,7.3-2.3,15.2-1.2,23.5,3.4,12.3-13.2,25-19.3,37.8-18.1,17.6,1.7,34.7,16.5,52.1,45.4,16.7-15.2,32.4-22.4,46.7-21.4,9.6.7,18.3,5.3,24.4,13.1,1,1.3,1.1,3,.4,4.5-1.1,2.3-4.4,9.2-107.1,64.6-23.5,12.6-49.2,26.2-70.5,37.2-32.7,16.7-34.1,16.7-35.1,16.7h0ZM2038.3,541.59c-2.3,0-4.4.5-6.4,1.6-6.5,3.7-11.2,13.6-14,29.5-2.3,12.9,6.7,34,26.4,73.2,23.9-10.7,187.8-97.4,203.8-112.6-3.6-4-9.4-8.2-17.9-8.8-13-.9-28.4,6.8-44.6,22.4-.8.7-1.8,1.1-2.9.9-1.1-.1-2-.8-2.5-1.7-16.8-28.8-33.3-44.2-49-45.7-11.1-1.1-22.5,4.9-33.8,17.8-1.1,1.3-3,1.6-4.5.7-7.6-4.7-14.2-6.1-20.3-4.1-8.2,2.6-15.5,11.5-21.8,26.4-.7,1.7-2.7,2.6-4.5,1.9-3-1-5.6-1.5-8-1.5Z"/>
    <path class="st0" d="M2099.2,586.89c-10.9,5.6-13.3,24-7.4,55.2,8.9,46.8,34,83,54.4,75.6,13.6-4.9,16.8-29.6,9.6-74l-56.6-56.8Z"/>
    <path class="st5" d="M2140.7,722.19c-3.9,0-8-1.2-12.1-3.5-17.4-9.9-33.6-40.5-40.3-75.9-6.3-33.2-3.3-52.5,9.3-59,1.7-.9,3.8-.2,4.7,1.5.9,1.7.2,3.8-1.5,4.7-9.1,4.7-11.1,22.5-5.6,51.4,6.3,33.1,21.4,62.3,36.9,71.2,4.6,2.6,8.9,3.2,12.8,1.8,8.1-2.9,15.9-17.4,7.4-70.1-.3-1.9,1-3.7,2.9-4s3.7,1,4,2.9c7.5,46.8,3.7,72.2-11.9,77.8-2.1.8-4.3,1.2-6.6,1.2Z"/>
    <g>
      <path class="st0" d="M2104,540.59c-10.9,5.6-13.3,24-7.4,55.2,8.9,46.8,34,83,54.4,75.6,13.6-4.9,16.8-29.6,9.6-74l-56.6-56.8Z"/>
      <path class="st5" d="M2145.5,675.89c-3.9,0-8-1.2-12.1-3.5-17.4-9.9-33.6-40.5-40.3-75.9-6.3-33.2-3.3-52.5,9.3-59,1.7-.9,3.8-.2,4.7,1.5.9,1.7.2,3.8-1.5,4.7-9.1,4.7-11.1,22.5-5.6,51.4,6.3,33.1,21.4,62.3,36.9,71.2,4.6,2.6,8.9,3.2,12.8,1.8,8.1-2.9,15.9-17.4,7.4-70.1-.3-1.9,1-3.7,2.9-4s3.7,1,4,2.9c7.5,46.8,3.7,72.2-11.9,77.8-2.1.8-4.3,1.2-6.6,1.2Z"/>
    </g>
    <g>
      <path class="st0" d="M2091.5,494.09c-10.9,5.6-13.3,24-7.4,55.2,8.9,46.8,34,83,54.4,75.6,13.6-4.9,16.8-29.6,9.6-74l-56.6-56.8Z"/>
      <path class="st5" d="M2133,629.39c-3.9,0-8-1.2-12.1-3.5-17.4-9.9-33.6-40.5-40.3-75.9-6.3-33.2-3.3-52.5,9.3-59,1.7-.9,3.8-.2,4.7,1.5.9,1.7.2,3.8-1.5,4.7-9.1,4.7-11.1,22.5-5.6,51.4,6.3,33.1,21.4,62.3,36.9,71.2,4.6,2.6,8.9,3.2,12.8,1.8,8.1-2.9,15.9-17.4,7.4-70.1-.3-1.9,1-3.7,2.9-4s3.7,1,4,2.9c7.5,46.8,3.7,72.2-11.9,77.8-2.1.8-4.4,1.2-6.6,1.2Z"/>
    </g>
  </g>
  <path class="st0" d="M1989.7,1489.41c39.8,16.9,101.8-39.2,138.3-125.4s33.9-169.7-5.9-186.6-101.8,39.2-138.3,125.4-33.9,169.7,5.9,186.6Z"/>
  <path class="st5" d="M2005,1496.01c-5.9,0-11.4-1.1-16.6-3.3-20.6-8.7-32.6-33.8-33.7-70.4-1.1-35.7,8.1-78.6,26-120.7s42.3-78.5,68.8-102.6c27.2-24.7,53.5-33.4,74.1-24.7,20.6,8.7,32.6,33.8,33.7,70.4,1.1,35.7-8.1,78.6-26,120.7s-42.3,78.5-68.8,102.6c-20.4,18.4-40.2,28-57.5,28ZM2106.8,1177.91c-15.5,0-33.7,8.9-52.7,26.2-25.8,23.3-49.6,58.9-67.1,100.1s-26.5,83-25.4,117.8c1.1,33.8,11.5,56.6,29.5,64.2h0c17.9,7.6,41.6-.7,66.7-23.4,25.8-23.3,49.6-58.9,67.1-100.1s26.5-83,25.4-117.8c-1.1-33.8-11.5-56.6-29.5-64.2-4.4-1.9-9-2.8-14-2.8Z"/>
  <g>
    <path class="st0" d="M2035.9,1217.94c57.9,19.5,92.3,17.2,103.1-6.8,16.1-36,59.5-111.3,168.3-68.3l-81.3,351.1-265.7-82c1.8-40.8,10-77.8,24.5-111.1s31.6-60.9,51.1-82.9Z"/>
    <path class="st5" d="M2228.6,1498.34l-271.9-83.9.1-2.7c1.9-41,10.2-78.8,24.8-112.3,14.6-33.4,32-61.6,51.6-83.8l1.5-1.7,2.2.7c55.7,18.7,88.9,17.1,98.8-4.9,34.5-76.9,94.3-101.2,172.9-70.2l2.8,1.1-82.8,357.7ZM1964,1409.34l259.5,80.1,79.8-344.5c-74.1-28.2-128.3-5.5-161.1,67.6-5.9,13.2-18.3,20.5-36.8,21.8-17.1,1.1-40.1-3-68.4-12.3-18.5,21.3-35,48.3-48.9,80.2-14,32-22.1,68-24.1,107.1Z"/>
    <path class="st0" d="M2085.2,1230.14c28.2,3.4,46-2.9,53.2-19,16.1-36,59.4-111.4,168-68.3l-81.1,351.1-155.9-48.2c44.1-95.5,58.9-142.7,44.4-141.5-93.7,7.7-34.6-74.8-28.6-74.1Z"/>
    <path class="st5" d="M2227.8,1498.34l-163.3-50.5,1.7-3.6c19.2-41.6,33-74.5,41-97.5,10.7-30.9,8.6-37.5,7.7-38.7-.1-.1-.2-.3-.8-.2-27.4,2.2-45-2.9-52.4-15.3-10.8-18,4.4-44,9.3-51.6,4.4-6.7,10.5-14.7,14.7-14.2h0c26.8,3.2,43-2.3,49.6-16.9,34.5-76.9,94.1-101.2,172.5-70.2l2.8,1.1-82.8,357.6ZM2074.2,1443.54l148.4,45.9,79.6-344.5c-73.9-28.2-128-5.5-160.7,67.6-7.8,17.4-26.6,24.5-56,21.1-5.3,3.7-25.2,31.9-19.9,50.7,3.8,13.2,19.8,18.7,47.8,16.4,3-.3,5.5.9,7.1,3.2,5.1,7.1,4.3,29.6-46.3,139.6ZM2086,1233.44h0Z"/>
    <path class="st0" d="M2189.1,1484.54c65.2,14.1,102.4-57,128.5-154.2s24.5-182.6-34.2-197.8c-58.7-15.2-84.5,66.3-110.6,163.5-26,97.2-48.9,174.3,16.3,188.5Z"/>
    <path class="st5" d="M2205,1489.84c-5.4,0-11-.6-16.7-1.9h0c-16.8-3.7-28.6-11.3-36-23.5-19.7-32.3-3.7-91.7,14.8-160.6l2.3-8.7c12.2-45.7,25.7-92.9,43.4-124.7,19.6-35.2,42.9-48.7,71.4-41.3,16.7,4.3,29.7,14.3,38.6,29.5,25.1,43.1,12.8,117.6-1.9,172.6-14.7,54.9-31.1,94.2-50.1,120-18.8,25.7-40.9,38.6-65.8,38.6ZM2269.7,1134.14c-19.5,0-35.8,12.9-50.7,39.6-17.3,31.1-30.6,77.9-42.7,123.1l-2.3,8.7c-18.1,67.3-33.7,125.4-15.6,155.1,6.4,10.5,16.7,17.1,31.5,20.3h0c5.2,1.1,10.4,1.7,15.3,1.7,46.2,0,81.2-49.4,109-153.4,20.3-75.9,21.3-135.2,2.6-167.2-7.9-13.6-19.5-22.4-34.3-26.3-4.4-1-8.7-1.6-12.8-1.6Z"/>
    <path class="st0" d="M2218.9,1493.04c65.2,14.1,102.4-57,128.5-154.2s24.5-182.6-34.2-197.8c-58.6-15.2-84.5,66.3-110.5,163.5s-48.9,174.4,16.2,188.5Z"/>
    <path class="st5" d="M2234.9,1498.34c-5.4,0-11-.6-16.7-1.9h0c-16.8-3.7-28.6-11.3-36-23.5-19.7-32.3-3.7-91.7,14.8-160.6l2.3-8.7c12.2-45.7,25.7-92.9,43.4-124.7,19.6-35.2,42.9-48.7,71.4-41.3,16.7,4.3,29.7,14.3,38.6,29.5,25.1,43.1,12.8,117.6-1.9,172.6-14.7,54.9-31.1,94.2-50.1,120-18.9,25.7-41,38.6-65.8,38.6ZM2219.7,1489.64c54,11.7,93.5-36.5,124.4-151.7,20.3-75.9,21.3-135.2,2.6-167.2-7.9-13.6-19.5-22.4-34.3-26.3-25.3-6.6-45.5,5.5-63.6,37.9-17.3,31.1-30.6,77.9-42.7,123.1l-2.3,8.7c-18.1,67.3-33.7,125.5-15.6,155.2,6.3,10.4,16.6,17.1,31.5,20.3h0Z"/>
    <path class="st5" d="M2358.3,1195.44c-33.1,0-69.7-5.4-108.9-16.1l1.8-6.8c38.6,10.5,74.6,15.9,107.1,15.9v7h0ZM2365.3,1239.44c-40.4,0-85.2-7.5-133-22.2l2.1-6.7c47.2,14.5,91.3,21.8,131,21.8v7.1h-.1ZM2358.3,1288.44c-43.2,0-91.1-9.5-142.2-28.2l2.4-6.6c50.4,18.4,97.4,27.8,139.8,27.8v7Z"/>
    <path class="st5" d="M2346.3,1337.44c-43.2,0-91.1-9.5-142.2-28.2l2.4-6.6c50.4,18.4,97.4,27.8,139.8,27.8v7Z"/>
    <path class="st5" d="M2335.3,1381.44c-43.2,0-91.1-9.5-142.2-28.2l2.4-6.6c50.4,18.4,97.4,27.8,139.8,27.8v7Z"/>
    <path class="st5" d="M2320.3,1425.44c-43.2,0-91.1-9.5-142.2-28.2l2.4-6.6c50.4,18.4,97.4,27.8,139.8,27.8v7Z"/>
    <path class="st5" d="M2295.3,1468.44c-36.9,0-77.7-9.5-121.4-28.3l2.8-6.4c42.8,18.4,82.7,27.7,118.6,27.7v7h0Z"/>
  </g>
  <g>
    <path class="st0" d="M2367.6,2016.11c-83.1-397.3-641.5-510.7-867.1-533.9-150.4-15.5-228.4-59.1-237.1-139l-100.9,24.5c12.8,101.7,40.5,175.1,124,210.9,125.2,53.7,390.3,121.2,463.7,433.7,211.2,1.6,417,2.9,617.4,3.8Z"/>
    <path class="st5" d="M2371.9,2019.61h-4.3c-199.5-.8-407.3-2.1-617.4-3.9h-2.7l-.6-2.7c-64.6-275.2-274.9-357.6-414-412.1-17.2-6.7-33.4-13.1-47.7-19.2-40.4-17.3-69.9-44.2-90.2-82.3-17.3-32.4-28.7-74.1-35.9-131.4l-.4-3.1,107.8-26.2.4,4c4.2,38.9,25.1,68.6,63.7,91s94.3,37.1,170.3,44.9c81,8.3,290.8,37.4,488.1,127,98.7,44.8,180.2,98.7,242.3,160.2,73.3,72.5,120.3,156.5,139.8,249.5l.8,4.3ZM1752.9,2008.71c207.7,1.7,413,3,610.3,3.8-36.9-168.9-163.8-303.6-377.2-400.5-196.3-89.2-405.2-118.1-485.9-126.4-77-7.9-133.6-22.9-173.1-45.8-39.4-22.8-61.2-53.1-66.7-92.4l-94,22.9c10.9,84.5,33.7,167.3,121.5,205,14.2,6.1,30.3,12.4,47.4,19.1,69.5,27.2,155.9,61.1,235.3,123.8,43.3,34.2,79.9,73.8,109,117.9,33.4,50.4,58,108.5,73.4,172.6Z"/>
  </g>
  <g>
    <circle class="st3" cx="2186.3" cy="244.91" r="91"/>
    <path class="st5" d="M2217.9,262.41c-2.9,0-6.1-.5-9.6-1.6-1.8-.6-2.9-2.5-2.3-4.4.6-1.8,2.5-2.9,4.4-2.3,5.5,1.7,9.8,1.8,12.8.1,2.7-1.5,4.6-4.6,5.7-9.1.5-1.9,2.4-3,4.2-2.6,1.9.5,3,2.4,2.6,4.2-1.6,6.5-4.7,11-9.1,13.5-2.5,1.5-5.4,2.2-8.7,2.2Z"/>
  </g>
  <path class="st5" d="M1696.3,322.51h-.1c-6.5-.2-12.3-4.3-14.7-10.4-.7-1.8.2-3.8,2-4.5s3.8.2,4.5,2c1.4,3.5,4.7,5.8,8.5,6,1.9.1,3.4,1.7,3.4,3.6-.2,1.9-1.7,3.3-3.6,3.3ZM1723.2,309.91c-1.3,0-2.5-.7-3.1-1.9-.9-1.7-.3-3.8,1.4-4.7,5.4-2.9,9.9-5.2,13.5-6.9,1.7-.8,3.8-.1,4.7,1.7.8,1.7.1,3.8-1.7,4.7-3.5,1.6-7.9,3.9-13.2,6.7-.5.2-1,.4-1.6.4ZM1746.3,299.51c-1.9,0-3.5-1.6-3.5-3.5s1.6-3.5,3.5-3.5c4.9,0,9.8-.3,14.6-.8,1.9-.2,3.7,1.2,3.9,3.1.2,1.9-1.2,3.7-3.1,3.9-5.1.5-10.2.8-15.4.8ZM1790.4,291.71c-1.4,0-2.8-.9-3.3-2.3-.7-1.8.3-3.8,2.1-4.5,4.5-1.7,9-3.6,13.4-5.8,1.7-.9,3.8-.2,4.7,1.5.9,1.7.2,3.8-1.5,4.7-4.6,2.3-9.3,4.4-14.1,6.2-.5.1-.9.2-1.3.2ZM1673.8,286.41c-1.4,0-2.7-.8-3.2-2.1-2.7-6.4-4.8-10.8-6.2-13-1-1.6-.5-3.8,1.1-4.8s3.8-.5,4.8,1.1c1.6,2.6,3.8,7.2,6.7,14,.7,1.8-.1,3.8-1.9,4.6-.4.1-.9.2-1.3.2ZM1829.1,269.11c-1,0-2-.4-2.7-1.2-1.3-1.5-1.1-3.7.4-4.9,3.7-3.1,7.2-6.5,10.6-10.1,1.3-1.4,3.5-1.5,4.9-.2s1.5,3.5.2,4.9c-3.5,3.7-7.2,7.3-11.1,10.6-.7.7-1.5.9-2.3.9ZM1646.4,251.51c-1,0-2-.4-2.7-1.3-3.2-4-6.2-8.2-8.9-12.6-1-1.6-.5-3.8,1.1-4.8s3.8-.5,4.8,1.1c2.6,4.1,5.4,8.1,8.4,11.9,1.2,1.5,1,3.7-.5,4.9-.6.5-1.4.8-2.2.8ZM1857.7,234.71c-.6,0-1.2-.1-1.7-.5-1.7-1-2.3-3.1-1.3-4.8,2.4-4.2,4.6-8.6,6.4-13.1.8-1.8,2.8-2.6,4.6-1.9,1.8.8,2.6,2.8,1.9,4.6-2,4.7-4.3,9.3-6.8,13.8-.7,1.2-1.9,1.9-3.1,1.9ZM1625,212.21c-1.5,0-2.8-.9-3.3-2.4-1.6-4.8-3-9.8-4-14.9-.4-1.9.8-3.7,2.7-4.1,1.9-.4,3.7.8,4.1,2.7,1,4.7,2.3,9.5,3.8,14.1.6,1.8-.4,3.8-2.2,4.4-.4.2-.8.2-1.1.2ZM1872.6,192.51h-.6c-1.9-.3-3.2-2.1-2.9-4,.8-4.8,1.3-9.6,1.5-14.5.1-1.9,1.8-3.4,3.7-3.3,1.9.1,3.4,1.7,3.3,3.7-.2,5.1-.8,10.3-1.6,15.3-.2,1.6-1.7,2.8-3.4,2.8ZM1618.4,167.91s-.1,0,0,0c-2-.1-3.6-1.7-3.5-3.6.1-5.1.6-10.3,1.3-15.3.3-1.9,2.1-3.2,4-3,1.9.3,3.2,2.1,3,4-.7,4.8-1.1,9.7-1.2,14.5-.2,1.9-1.7,3.4-3.6,3.4ZM1872.1,147.71c-1.7,0-3.1-1.2-3.4-2.9-.9-4.8-2.1-9.5-3.5-14.1-.6-1.8.5-3.8,2.3-4.4s3.8.5,4.4,2.3c1.5,4.9,2.8,9.9,3.7,14.9.4,1.9-.9,3.7-2.8,4.1-.2.1-.4.1-.7.1ZM1627.4,124.11c-.4,0-.9-.1-1.3-.2-1.8-.7-2.7-2.8-2-4.5,1.9-4.8,4.1-9.4,6.5-13.9.9-1.7,3-2.3,4.7-1.4,1.7.9,2.3,3,1.4,4.7-2.3,4.3-4.4,8.7-6.2,13.2-.4,1.3-1.7,2.1-3.1,2.1ZM1856.3,105.91c-1.2,0-2.4-.6-3-1.7-2.5-4.2-5.2-8.2-8.2-12.1-1.2-1.5-.9-3.7.6-4.9s3.7-.9,4.9.6c3.1,4.1,6,8.3,8.7,12.7,1,1.7.4,3.8-1.2,4.8-.6.4-1.2.6-1.8.6ZM1650.9,86.11c-.8,0-1.7-.3-2.3-.9-1.4-1.3-1.6-3.5-.3-4.9,3.4-3.8,7.1-7.5,10.9-10.9,1.4-1.3,3.7-1.1,4.9.3,1.3,1.4,1.1,3.7-.3,4.9-3.6,3.2-7.1,6.7-10.3,10.3-.6.8-1.6,1.2-2.6,1.2ZM1827,72.01c-.8,0-1.6-.3-2.2-.8-3.8-3.1-7.7-5.9-11.8-8.5-1.6-1-2.1-3.2-1.1-4.8,1-1.6,3.2-2.1,4.8-1.1,4.3,2.7,8.5,5.8,12.5,9,1.5,1.2,1.7,3.4.5,4.9-.7.9-1.7,1.3-2.7,1.3ZM1686.1,58.41c-1.3,0-2.5-.7-3.1-1.9-.9-1.7-.3-3.8,1.4-4.7,4.5-2.4,9.2-4.6,14-6.4,1.8-.7,3.8.2,4.5,2,.7,1.8-.2,3.8-2,4.5-4.5,1.8-9,3.8-13.2,6.1-.4.3-1,.4-1.6.4ZM1787.9,50.31c-.4,0-.8-.1-1.1-.2-4.6-1.6-9.3-2.9-14-3.9-1.9-.4-3.1-2.3-2.7-4.2.4-1.9,2.3-3.1,4.2-2.7,5,1.1,10,2.5,14.8,4.1,1.8.6,2.8,2.6,2.2,4.4-.6,1.6-2,2.5-3.4,2.5ZM1728.7,44.61c-1.7,0-3.2-1.3-3.5-3-.3-1.9,1.1-3.7,3-3.9,5.1-.7,10.2-1.1,15.3-1.2,2,0,3.5,1.5,3.6,3.4,0,1.9-1.5,3.5-3.4,3.6-4.9.1-9.8.5-14.5,1.1h-.5ZM1732.5,205.11c1.5-8.4,3.3-14.1,5.2-17.2,1.9-3.1,6.4-6.8,13.3-11.2,8.2-6,14.3-11.1,18.3-15.4s6.7-10.1,8-17.6c1.4-8.2.4-14.9-3.2-20.2-3.6-5.3-9.4-8.6-17.5-10-7.6-1.3-14-.2-19.4,3.4s-8.8,9.1-10.2,16.6l-10.8-1.9-.1-.6c1.7-10.6,6.5-18.4,14.4-23.2,7.9-4.9,17.2-6.4,27.9-4.5,11.5,2,19.9,6.8,25.3,14.5,5.4,7.6,7.1,16.9,5.1,28-1.5,8.7-5,16-10.5,21.9-5.4,5.9-12.7,11.9-21.8,17.8-4.6,2.7-7.6,5.4-8.9,8.2-1.4,2.8-2.6,7.3-3.7,13.4l-11.4-2ZM1738.6,246.21l-13.4-2.4,2.6-14.8,13.4,2.4-2.6,14.8Z"/>
  <path class="st5" d="M995.2,205.51c-.6,0-1.2-.2-1.8-.5-1.7-1-2.2-3.2-1.2-4.8,2.7-4.5,5.5-8.7,8.3-12.8,1.1-1.6,3.3-2,4.9-.9,1.6,1.1,2,3.3.9,4.9-2.7,3.9-5.4,8.1-8,12.4-.8,1.1-1.9,1.7-3.1,1.7ZM1022.2,169.71c-.9,0-1.8-.3-2.4-1-1.4-1.3-1.4-3.6-.1-4.9,3.7-3.8,7.5-7.3,11.3-10.4,1.5-1.2,3.7-1,4.9.5,1.2,1.5,1,3.7-.5,4.9-3.6,2.9-7.2,6.3-10.7,9.9-.6.7-1.6,1-2.5,1ZM1059,144.41c-1.4,0-2.7-.9-3.3-2.3-.7-1.8.2-3.8,2-4.5,4.9-1.9,10-3.3,15.1-4.1,1.9-.3,3.7,1,4,2.9s-1,3.7-2.9,4c-4.6.8-9.3,2.1-13.8,3.8-.3.1-.7.2-1.1.2ZM1118,144.01h-.5c-3.9-.5-7.8-1.2-11.7-2.2-1.1-.3-2.2-.5-3.3-.7-1.9-.4-3.1-2.2-2.7-4.1.4-1.9,2.2-3.1,4.1-2.7,1.2.2,2.3.5,3.5.8,3.7.9,7.3,1.6,10.9,2,1.9.2,3.3,2,3,3.9-.1,1.8-1.6,3-3.3,3ZM1147.8,142.81c-1.6,0-3-1.1-3.4-2.7-.4-1.9.7-3.8,2.6-4.2,4.6-1.1,9.2-2.6,13.6-4.5,1.8-.8,3.8,0,4.6,1.8.8,1.8,0,3.8-1.8,4.6-4.8,2.1-9.8,3.8-14.8,4.9-.3.1-.6.1-.8.1ZM1187,121.81c-1,0-1.9-.4-2.6-1.2-1.3-1.5-1.1-3.7.3-4.9,3.5-3.1,7-6.5,10.4-10.3,1.3-1.4,3.5-1.5,4.9-.3,1.4,1.3,1.5,3.5.3,4.9-3.5,3.9-7.2,7.6-10.9,10.8-.7.8-1.5,1-2.4,1Z"/>
</svg>