<svg xmlns="http://www.w3.org/2000/svg" id="magic-wand" viewBox="0 0 24 24">
  <path d="M14.725 7.861a2.253 2.253 0 0 0-3.182 0l-8.485 8.485c-.425.425-.659.99-.659 1.591s.234 1.167.659 1.591l1.414 1.414c.425.425.99.659 1.591.659s1.166-.234 1.591-.659l8.486-8.485a2.255 2.255 0 0 0 0-3.182z" style="stroke-width:0;fill:#364165"></path>
  <path d="M16.14 12.456a2.253 2.253 0 0 0-.001-3.181L14.724 7.86a2.253 2.253 0 0 0-3.182 0L9.537 9.865l4.596 4.596 2.006-2.006ZM14.944 3.148v2a.75.75 0 0 1-1.5 0v-2a.75.75 0 0 1 1.5 0m5.908 5.908h-2a.75.75 0 0 0 0 1.5h2a.75.75 0 0 0 0-1.5m-1.177-3.67a.75.75 0 1 0-1.061-1.061L17.199 5.74a.75.75 0 0 0 1.06 1.061z" style="fill:#fdbd22;stroke-width:0"></path>
</svg>
