<?xml version="1.0" encoding="UTF-8"?>
<svg id="layer" xmlns="http://www.w3.org/2000/svg" xmlns:xlink="http://www.w3.org/1999/xlink" version="1.1" viewBox="0 0 601 126">
  <defs>
    <style>
      .cls-1 {
        fill: #087538;
      }

      .cls-1, .cls-2, .cls-3, .cls-4 {
        stroke-width: 0px;
      }

      .cls-2 {
        fill: url(#linear-gradient);
      }

      .cls-3 {
        fill: #081d31;
      }

      .cls-4 {
        fill: #50bf34;
      }
    </style>
    <linearGradient id="linear-gradient" x1="66.2" y1="-285.9" x2="25.9" y2="-378.3" gradientTransform="translate(0 368.5)" gradientUnits="userSpaceOnUse">
      <stop offset="0" stop-color="#00aee6"/>
      <stop offset=".2" stop-color="#00aee6"/>
      <stop offset=".4" stop-color="#00a9e6"/>
      <stop offset=".5" stop-color="#009de6"/>
      <stop offset=".7" stop-color="#0089e6"/>
      <stop offset=".9" stop-color="#016de6"/>
      <stop offset="1" stop-color="#0251e6"/>
    </linearGradient>
  </defs>
  <path class="cls-3" d="M152.3,27.8h42.3c5.2,0,9.3,1.5,11.7,4.6,2.5,2.8,3.7,7.1,3.7,12.6v3.4c0,5.2-1.5,9.3-4.9,12.3-1.5,1.5-3.4,2.5-5.2,2.8-1.5.3-4.3.6-8.9.6h-21.3v12h-17V27.7h-.4ZM169.3,51.2h19.7c3.1,0,4.6-1.2,4.6-3.7v-2.8c0-1.5-.3-2.8-.9-3.1-.6-.6-1.9-.9-3.7-.9h-19.7v10.5h0ZM221.7,75.9h-18.2l26.8-48.1h19.4l26.5,48.1h-18.2l-4.6-8.3h-27.1l-4.6,8.3ZM239.3,42.6l-8.3,14.8h16.3l-8-14.8ZM335.6,47.2c0,3.7-1.2,6.5-3.4,8-.6.6-1.5.9-2.5,1.2,3.7,1.9,5.6,4.9,5.6,9.3v9.9h-16.3v-9.9c0-1.9-.9-2.8-3.1-2.8h-21.9v12.6h-16V27.7h42.9c4,0,7.4.9,9.6,2.5,3.4,2.5,5.2,6.2,5.2,10.5-.1,0-.1,6.5-.1,6.5ZM294.2,51.2h21c3.1,0,4.6-.9,4.6-3.1v-4c0-1.2-.3-2.2-.9-2.8-.6-.3-1.5-.6-3.1-.6h-21.9v10.5h.3ZM378.8,63.5c1.9,0,3.1,0,3.4-.3.6-.3.9-.9.9-1.9v-.9c0-.9-.3-1.9-.6-2.2s-1.9-.6-4.6-.6h-20.1c-4.9,0-8.6-.9-11.4-2.5-3.1-2.2-4.6-5.6-4.6-10.2v-2.5c0-8.6,4-13.3,12-14.5,1.9-.3,4.9-.3,9.6-.3h14.2c4.3,0,7.4.3,9.3.6,3.1.6,5.2,1.9,7.1,4,1.9,2.2,2.8,4.6,2.8,7.4v.3h-35.5c-1.2,0-2.2,0-2.5.3-.6.6-1.2,1.2-1.2,1.9v.9c0,1.2.3,1.9,1.2,2.2h24c4.6,0,8.3.6,10.2,2.2,3.4,2.2,4.9,6.2,4.9,11.7v2.5c0,2.2,0,3.7-.3,4.6-.6,2.2-1.5,3.7-2.8,5.2-1.9,2.2-4.9,3.4-8.9,4-1.5.3-3.7.3-7.1.3h-20.4c-5.6,0-9.6-.9-12-2.5-1.2-.9-2.2-1.9-3.1-3.4s-1.2-3.1-1.2-4.6v-1.9h36.7v.2ZM446,27.8c4.6,0,7.4,0,8.6.3,3.1.3,5.6,1.5,7.4,3.1,2.5,2.5,4,5.6,4.6,9.6.3.9.3,3.7.3,8v9.6c0,7.1-1.5,11.7-4.6,13.9-2.5,1.5-4.9,2.8-7.7,3.1-1.9.3-4.6.6-8,.6h-25.9c-6.2,0-11.1-1.5-14.5-4.3-2.8-2.2-4-6.5-4-13,0,.3,0-.6,0-2.5v-7.5c0-4,.3-6.8.6-8.6,1.2-6.8,4.9-10.8,11.4-12,1.5-.3,4-.3,7.4-.3,0,0,24.4,0,24.4,0ZM426.3,41c-2.8,0-4.3.3-5.2.9-1.2.9-1.9,2.8-1.9,5.2v12.1c.3,2.5,2.5,3.7,5.9,3.7h18.8c4,0,5.9-1.9,5.9-5.2v-11.7c0-3.1-1.9-4.9-5.9-4.9,0,0-17.6,0-17.6,0ZM490.4,75.9h-16.7V27.8h23.4l25,31.5v-31.5h16v48.1h-23.1l-24.7-30.8v30.8h0ZM580.8,63.5c1.9,0,3.1,0,3.4-.3.6-.3.9-.9.9-1.9v-.9c0-.9-.3-1.9-.6-2.2-.3-.3-1.9-.6-4.6-.6h-20.1c-4.9,0-8.6-.9-11.4-2.5-3.1-2.2-4.6-5.6-4.6-10.2v-2.5c0-8.6,4-13.3,12-14.5,1.9-.3,4.9-.3,9.6-.3h14.2c4.3,0,7.4.3,9.3.6,3.1.6,5.2,1.9,7.1,4,1.9,2.2,2.8,4.6,2.8,7.4v.3h-35.5c-1.2,0-2.2,0-2.5.3-.6.6-1.2,1.2-1.2,1.9v.9c0,1.2.3,1.9,1.2,2.2h24c4.6,0,8.3.6,10.2,2.2,3.4,2.2,4.9,6.2,4.9,11.7v2.5c0,2.2,0,3.7-.3,4.6-.6,2.2-1.5,3.7-2.8,5.2-1.9,2.2-4.9,3.4-8.9,4-1.5.3-3.7.3-7.1.3h-20.4c-5.6,0-9.6-.9-12-2.5-1.2-.9-2.2-1.9-3.1-3.4s-1.2-3.1-1.2-4.6v-1.9h36.7v.2Z"/>
  <polygon class="cls-4" points="0 124 33.3 96.2 33.3 75.9 0 75.9 0 124"/>
  <path class="cls-2" d="M96.2,9.9c-5.6-6.5-13.9-9.9-25-9.9H0l33.3,27.8h25.6c3.4,0,6.2.6,7.4,1.5,1.5,1.2,2.2,3.4,2.2,6.8v3.7c0,3.4-.6,5.6-2.2,6.8-1.5,1.2-4,1.5-7.4,1.5h-25.6L0,75.9h71.3c11.1,0,19.4-3.4,25-9.9,5.6-6.2,8-14.8,8-26.2v-3.7c-.1-11.4-2.6-20.4-8.1-26.2Z"/>
  <polygon class="cls-1" points="33.3 83 33.3 75.9 0 75.9 33.3 83"/>
</svg>