<?xml version="1.0" encoding="UTF-8"?>
<svg xmlns="http://www.w3.org/2000/svg" version="1.1" viewBox="0 0 450.7 72.7">
  <defs>
    <style>
      .cls-1 {
        fill: #211261;
      }

      .cls-2 {
        fill: #6f7271;
      }

      .cls-3 {
        fill: #bd9a5f;
      }
    </style>
  </defs>
  <!-- Generator: Adobe Illustrator 28.7.1, SVG Export Plug-In . SVG Version: 1.2.0 Build 142)  -->
  <g>
    <g id="Layer_1">
      <g>
        <g>
          <path class="cls-2" d="M24.8,61.3c-.2-.7-.3-1.2-.9-1.7-.5-.4-1.2-.8-2.5-.8s-1.7,0-2.8.6c-1.9,1-3,3.1-3,5.2s1.6,4.1,4.1,4.1,3.2-.9,3.7-1.5c.3-.3.4-.5.7-1.2l5.1.6c-.2.5-.4,1.2-1.2,2.1-1.2,1.5-4,3.7-8.8,3.7s-4.6,0-6.9-2.2c-2-1.9-2.2-4.6-2.2-5.5s.3-3.8,2.5-6.1c2.3-2.5,5.4-3.3,8.7-3.3s4.5,0,6.9,2.3c.3.3,1,1.1,1.4,2.2,0,.3.1.6.2.9l-5.1.5Z"/>
          <path class="cls-2" d="M48.1,72l-.3-2.6h-6.5l-1.5,2.6h-6.3l10.8-16.1h6.8l2.8,16.1h-5.9ZM46.7,60.1l-3.3,5.7h4l-.7-5.7Z"/>
          <path class="cls-2" d="M78.3,64.8c-.6.4-1.2.6-1.8.8l2.6,6.4h-5.8l-2.1-5.6h-3.5l-1.3,5.6h-5.6l3.7-16.1h10.2c.3,0,1.4,0,2.4.2.6.1,2.4.6,3.2,2.4.1.3.4,1,.4,1.9,0,1.7-.9,3.4-2.4,4.3ZM74.8,60.1c-.4-.7-1.3-.6-1.6-.6h-3.9l-.7,3.2h4c.8,0,1.7-.2,2.1-.9,0-.1.3-.5.3-.9s0-.5-.2-.7Z"/>
          <path class="cls-2" d="M101.5,61.2c0-.3-.2-.8-.8-1.4-.7-.6-1.7-.7-2.5-.7-1.3,0-2.4.3-3.5,1.1-1.9,1.6-2.1,3.9-2.1,4.8,0,1.6.6,2.4,1.1,2.9.5.5,1.4,1,3.1,1s1.7,0,2.8-.6c.2,0,.5-.3.9-.7.2-.3.4-.5.6-1.3h-4.5l.8-3.2h9.5l-2,8.9h-4.1l.2-1c-.3.2-.5.3-.8.5-.8.4-2.4,1.1-4.7,1.1-4,0-6.2-1.9-7.1-3.3-.5-.7-1.2-2.1-1.2-4.3s1-4.3,1.5-5.1c.2-.3.7-1,1.5-1.7,2.3-2.1,5.2-2.8,8.3-2.8s3.6,0,5.9,1.6c1,.7,1.5,1.3,1.7,1.7.5.8.7,1.5.8,2.4h-5.3Z"/>
          <path class="cls-2" d="M131.6,69.6c-1.2,1.1-3.8,2.8-8.3,2.8s-4.1,0-6.4-1.7c-1.8-1.3-2.8-3.4-2.8-5.7s.5-3.2,1.3-4.6c2.9-5,8.5-5.1,10.3-5.1,1.1,0,5.6.1,7.8,3.2.5.7,1.2,1.9,1.2,3.9s-1.2,5.4-3.1,7.1ZM128.3,60.1c-.5-.5-1.3-1.2-3-1.2-.7,0-2.4.2-3.8,1.6-1,1.1-1.7,2.8-1.7,4.3,0,2.4,1.5,4.1,3.9,4.1s2.5-.5,3.4-1.3c.7-.6,1.9-2.2,1.9-4.8s-.4-2.2-.8-2.7Z"/>
          <path class="cls-2" d="M168.7,72h-14l3.7-16.1h5.8l-2.9,12.4h8.3l-.8,3.7Z"/>
          <path class="cls-2" d="M193.7,69.6c-1.2,1.1-3.8,2.8-8.3,2.8s-4.1,0-6.4-1.7c-1.8-1.3-2.8-3.4-2.8-5.7s.5-3.2,1.3-4.6c2.9-5,8.5-5.1,10.3-5.1,1.1,0,5.6.1,7.8,3.2.5.7,1.2,1.9,1.2,3.9s-1.2,5.4-3.1,7.1ZM190.4,60.1c-.5-.5-1.3-1.2-3-1.2-.7,0-2.4.2-3.8,1.6-1,1.1-1.7,2.8-1.7,4.3,0,2.4,1.5,4.1,3.9,4.1s2.5-.5,3.4-1.3c.7-.6,1.9-2.2,1.9-4.8s-.4-2.2-.8-2.7Z"/>
          <path class="cls-2" d="M218.2,61.2c0-.3-.2-.8-.8-1.4-.7-.6-1.7-.7-2.6-.7-1.3,0-2.4.3-3.5,1.1-1.9,1.6-2.1,3.9-2.1,4.8,0,1.6.6,2.4,1.1,2.9.5.5,1.4,1,3.1,1s1.7,0,2.8-.6c.2,0,.5-.3.9-.7.2-.3.4-.5.6-1.3h-4.5l.8-3.2h9.5l-2,8.9h-4.1l.2-1c-.3.2-.5.3-.8.5-.8.4-2.4,1.1-4.7,1.1-4,0-6.2-1.9-7.2-3.3-.5-.7-1.2-2.1-1.2-4.3s1-4.3,1.5-5.1c.2-.3.7-1,1.5-1.7,2.3-2.1,5.2-2.8,8.3-2.8s3.6,0,5.9,1.6c1,.7,1.5,1.3,1.7,1.7.5.8.7,1.5.8,2.4h-5.3Z"/>
          <path class="cls-2" d="M235.5,72h-5.8l3.7-16.1h5.8l-3.7,16.1Z"/>
          <path class="cls-2" d="M257,60.5c0-.3,0-.5-.1-.7-.5-.8-1.9-.9-2.7-.9-1.2,0-2,.3-2.3.7-.2.2-.2.4-.2.5,0,.2,0,.4.2.6.3.4.9.6,1.5.8l4,1.1c1.3.4,1.8.6,2.3,1,1.4,1,1.6,2.5,1.6,3.1,0,1-.4,2.9-2.4,4.2-1.3.8-3.1,1.5-6.5,1.5s-5.2-.8-6.3-1.5c-.2-.1-.5-.4-.9-.8-.8-1-.9-1.9-.9-3.1l5.2-.2c0,.4,0,.6.1.8.5,1.2,2,1.3,3.1,1.3s1.4,0,2.2-.4c.2-.1.8-.5.8-1.3s-.1-.8-.8-1.1c-.4-.2-1.3-.4-1.7-.5l-3.1-.9c0,0-1.1-.3-1.7-.6-.6-.3-2.3-1.4-2.3-3.5s.3-2.8,2.4-4c1.3-.8,3-1.3,6.3-1.3s2.4,0,4.1.6c1.3.4,2.3,1.1,2.9,2.4.2.6.3,1.1.3,1.7l-5.2.4Z"/>
          <path class="cls-2" d="M286.5,59.5h-5.8l-2.9,12.5h-5.7l2.9-12.5h-6l.8-3.6h17.5l-.8,3.6Z"/>
          <path class="cls-2" d="M296.3,72h-5.8l3.7-16.1h5.8l-3.7,16.1Z"/>
          <path class="cls-2" d="M320.5,61.3c-.2-.7-.3-1.2-.9-1.7-.5-.4-1.2-.8-2.5-.8s-1.7,0-2.8.6c-1.9,1-3,3.1-3,5.2s1.6,4.1,4.1,4.1,3.2-.9,3.7-1.5c.2-.3.4-.5.7-1.2l5.1.6c-.2.5-.4,1.2-1.2,2.1-1.2,1.5-4,3.7-8.8,3.7s-4.6,0-6.9-2.2c-2-1.9-2.2-4.6-2.2-5.5s.3-3.8,2.5-6.1c2.3-2.5,5.4-3.3,8.7-3.3s4.5,0,6.9,2.3c.3.3,1,1.1,1.4,2.2,0,.3.1.6.2.9l-5.1.5Z"/>
          <path class="cls-2" d="M343.9,60.5c0-.3,0-.5-.1-.7-.5-.8-1.9-.9-2.7-.9-1.2,0-2,.3-2.3.7-.2.2-.2.4-.2.5,0,.2,0,.4.2.6.3.4.9.6,1.5.8l4,1.1c1.3.4,1.8.6,2.3,1,1.4,1,1.6,2.5,1.6,3.1,0,1-.4,2.9-2.4,4.2-1.3.8-3.1,1.5-6.5,1.5s-5.2-.8-6.3-1.5c-.2-.1-.5-.4-.9-.8-.8-1-.9-1.9-.9-3.1l5.2-.2c0,.4,0,.6.1.8.5,1.2,2,1.3,3.1,1.3s1.4,0,2.2-.4c.2-.1.8-.5.8-1.3s-.1-.8-.8-1.1c-.4-.2-1.3-.4-1.7-.5l-3.1-.9c0,0-1.1-.3-1.7-.6-.6-.3-2.3-1.4-2.3-3.5s.3-2.8,2.4-4c1.3-.8,3-1.3,6.3-1.3s2.4,0,4.1.6c1.3.4,2.3,1.1,2.9,2.4.2.6.3,1.1.3,1.7l-5.2.4Z"/>
          <path class="cls-2" d="M374.5,72h-5.8l3.7-16.1h5.8l-3.7,16.1Z"/>
          <path class="cls-2" d="M401.1,72h-5.2l-5.4-10.1-2.3,10.1h-5.3l3.7-16.1h5.2l5.4,10.2,2.3-10.2h5.2l-3.7,16.1Z"/>
          <path class="cls-2" d="M425.3,61.3c-.2-.7-.3-1.2-.9-1.7-.5-.4-1.2-.8-2.5-.8s-1.7,0-2.8.6c-1.9,1-3,3.1-3,5.2s1.6,4.1,4.1,4.1,3.2-.9,3.7-1.5c.3-.3.4-.5.7-1.2l5.1.6c-.2.5-.4,1.2-1.2,2.1-1.2,1.5-4,3.7-8.8,3.7s-4.6,0-6.9-2.2c-2-1.9-2.2-4.6-2.2-5.5s.3-3.8,2.5-6.1c2.3-2.5,5.4-3.3,8.7-3.3s4.5,0,6.9,2.3c.3.3,1,1.1,1.4,2.2,0,.3.1.6.2.9l-5.1.5Z"/>
          <path class="cls-2" d="M441.3,72h-5.2l1-4.2h5.2l-1,4.2Z"/>
        </g>
        <path class="cls-3" d="M279.2,29.2l8.9-27.5.2-.5h-15.6l-9.1,27.9c-1.2,3.8-3.7,5.4-8.3,5.4s-6.2-1.7-5-5.4l9.1-27.9h-15.7l-.9,2.7c.2.2.4.5.6.7,2.3,3.2,2.7,7.3,1.1,12.3-1.8,5.4-4.8,9.2-9.8,12.1-.9.5-1.8,1-2.8,1.4l1.8,4.1,2.8,6.4c3.1,2.7,8.5,3.8,15.5,3.8s12.7-1.1,17.3-3.6c1.8-1,3.4-2.2,4.8-3.6,2.2-2.2,3.9-5,5-8.4Z"/>
        <path class="cls-3" d="M371.2,1.7h-10.7l-4.4,13.7-1.6,5.5-2,.7-10.3-19.9h-7.4l-14,43.1h8.1l5-15.3,1.7-5.5,2.1-.7c3.7,7.9,8,14.7,11.9,21.6h10.7l14-43.1h-2.9Z"/>
        <path class="cls-3" d="M328.3,1.7h-10.7l-4.4,13.7-1.6,5.5-2,.7-10.3-19.9h-7.4l-14,43.1h8.1l5-15.3,1.7-5.5,2.1-.7c3.7,7.9,8,14.7,11.9,21.6h10.7l14-43.1h-2.9Z"/>
        <polygon class="cls-3" points="392.2 34.6 381.2 34.6 383.5 27.4 394.5 27.4 396 27.4 399 18.3 397.5 18.3 386.5 18.3 388.5 12 399.5 12 403.2 12 405 12 408.1 1.7 406.5 1.7 402.9 1.7 377.8 1.7 363.8 44.7 388.9 44.7 392.6 44.7 395.1 44.7 398.6 34.6 395.9 34.6 392.2 34.6"/>
        <path class="cls-3" d="M431.3,1.7h-19.3l-13,43.1h13.5l5.7-17.5,6.1,17.5h18.1l-7.1-16.1c8.5-3.1,12-6.9,13.9-12.7,3.6-11.1-5.2-14.2-17.8-14.2ZM432.7,16.4c-1.2,3.7-2.6,5.5-7.8,5.5h-5.1l3.5-10.8h5c4.9,0,5.4,1.7,4.2,5.3Z"/>
        <path class="cls-1" d="M111,22.4c0-.3.2-.6.3-.9.9-3,1.4-5.8,1.5-8.2.2-8.6-5.4-13.1-19-13.1s-17,2.4-22.2,6.9c1,2.7.9,6-.3,9.7-1.9,5.8-5.1,9.6-10.8,12.6-.2,1.9-.2,3.7.1,5.2.3,1.7,1,3.2,1.9,4.4,2.8,3.6,8.2,5.5,16.9,5.5s9-.5,12.6-1.6c2.2-.7,4.2-1.5,6.1-2.6,6.3-3.6,10.2-9.6,12.9-17.9ZM91.5,29.8c-1.7,2.5-4.4,4.5-8.7,4.5s-6-1.9-6-4.4c0-1.2.2-2.5.6-3.8.4-1.3.8-2.5,1.2-3.7.4-1.2.8-2.4,1.2-3.7.4-1.2,1-2.5,1.8-3.7,1.7-2.5,4.4-4.3,8.7-4.3s6,1.7,6.1,4.2c0,1.1-.3,2.5-.6,3.7-.3,1.2-.8,2.5-1.2,3.7-.4,1.1-.7,2.4-1.2,3.7-.5,1.3-1.1,2.6-1.9,3.8Z"/>
        <path class="cls-1" d="M147.4,29.1l-2-27.7h-20l-9.2,13.1c-.2,2.7-.8,5.7-1.9,9-3.4,10.4-8.7,17.2-16.7,21h13.7l4.2-6.8h15.8l-.4,6.8h17.6l-.4-6.1-.7-9.2ZM131.9,27.8h-10.6c3.2-5.1,7.5-11.2,10.9-16.1,0,4.8,0,10.2-.3,16.1Z"/>
        <path class="cls-1" d="M192.2,35c2.9-3.3,5-7.4,6.6-12.4,1.6-5,2.2-9.1,1.4-12.3-.4-1.7-1.1-3.1-2.3-4.3-2.9-3.1-8.3-4.6-16.7-4.6h-21.1l-9.1,28.2,1.1,14.9h15.5c8.2,0,14.6-1.7,19.5-4.9,1.9-1.3,3.6-2.8,5.1-4.5ZM183.5,18.9c-.3,1.1-.8,2.4-1.2,3.7-.4,1.3-.7,2.6-1.1,3.8-.5,1.3-1.1,2.5-1.8,3.6-1.7,2.5-4.4,4-8.8,4h-5.5l7.2-22.3h5.5c4.1,0,5.9,1.4,6.2,3.7.1,1,0,2.2-.4,3.4Z"/>
        <g>
          <polygon class="cls-1" points=".7 13.8 11.8 13.8 10.4 17.4 22.7 17.4 25 10.6 1.7 10.6 .7 13.8"/>
          <path class="cls-1" d="M49.9,1.1H4.8l-1,3.1h11.4l-1.1,2.9h12.1l-1.2,3.5h28.2l-2.3,6.8h0c-1.1,2.7-2.8,4-7.3,4h-20.7l-7.5,23h15.7l5.7-17.6,6.1,17.6h18.2l-7.1-16.2c8.6-3.1,12.1-6.9,14-12.8,3.6-11.2-5.2-14.3-17.9-14.3Z"/>
        </g>
        <path class="cls-3" d="M223.5,1.4h-25.5c1,.6,1.8,1.3,2.6,2.1,1.5,1.6,2.6,3.6,3.1,5.9.1.5.2.9.3,1.4h22.7l-2.3,6.8h0c-1.1,2.7-2.8,4-7.3,4h-14.2c-.2.7-.4,1.3-.6,2-1.8,5.6-4.2,10-7.4,13.6-1.5,1.8-3.2,3.3-5.1,4.6l-.9,2.8h15.7l5.7-17.6,6.1,17.6h18.2l-7.1-16.2c8.6-3.1,12.1-6.9,14-12.8,3.6-11.2-5.2-14.3-17.9-14.3Z"/>
      </g>
    </g>
  </g>
</svg>