<?xml version="1.0" encoding="UTF-8"?>
<svg id="Layer_1" xmlns="http://www.w3.org/2000/svg" xmlns:xlink="http://www.w3.org/1999/xlink" xmlns:rdf="http://www.w3.org/1999/02/22-rdf-syntax-ns#" xmlns:dc="http://purl.org/dc/elements/1.1/" xmlns:cc="http://creativecommons.org/ns#" version="1.1" viewBox="0 0 273 191">
  <!-- Generator: Adobe Illustrator 29.8.1, SVG Export Plug-In . SVG Version: 2.1.1 Build 2)  -->
  <defs>
    <style>
      .st0 {
        mask: url(#mask);
      }

      .st1 {
        fill: #fffffe;
      }

      .st1, .st2, .st3 {
        fill-rule: evenodd;
      }

      .st2 {
        fill: #fff;
      }

      .st3 {
        fill: #00a1e0;
      }
    </style>
    <mask id="mask" x="-.24" y=".5" width="272.3" height="190.58" maskUnits="userSpaceOnUse">
      <g id="b">
        <path id="a" class="st2" d="M.06.5h272v190H.06V.5Z"/>
      </g>
    </mask>
  </defs>
  <g class="st0">
    <path class="st3" d="M113,21.3c8.78-9.14,21-14.8,34.5-14.8,18,0,33.6,10,42,24.9,7.46-3.33,15.53-5.05,23.7-5.05,32.4,0,58.7,26.5,58.7,59.2s-26.3,59.2-58.7,59.2c-3.96,0-7.82-.4-11.6-1.15-7.35,13.1-21.4,22-37.4,22-6.51.01-12.94-1.46-18.8-4.32-7.45,17.5-24.8,29.8-45,29.8s-39-13.3-45.9-32c-3.07.65-6.2.97-9.34.97C20.06,160.05-.24,139.45-.24,114.15c0-17,9.14-31.8,22.7-39.8-2.88-6.63-4.36-13.78-4.35-21C18.11,24.15,41.81.55,71.01.55c17.1,0,32.4,8.15,42,20.8"/>
  </g>
  <path class="st1" d="M39.4,99.3c-.17.45.06.54.12.62.51.37,1.03.64,1.55.94,2.78,1.47,5.4,1.9,8.14,1.9,5.58,0,9.05-2.97,9.05-7.75v-.09c0-4.42-3.92-6.03-7.58-7.18l-.48-.15c-2.77-.9-5.16-1.68-5.16-3.5v-.09c0-1.56,1.4-2.71,3.56-2.71,2.4,0,5.26.8,7.09,1.81,0,0,.54.35.74-.17.11-.28,1.04-2.78,1.14-3.06.11-.29-.08-.51-.27-.63-2.1-1.28-5-2.15-8-2.15h-.56c-5.11,0-8.68,3.09-8.68,7.51v.1c0,4.66,3.94,6.18,7.62,7.23l.59.18c2.68.82,5,1.54,5,3.42v.09c0,1.73-1.51,3.02-3.93,3.02-.94,0-3.94-.02-7.19-2.07-.39-.23-.62-.39-.92-.58-.16-.1-.56-.27-.73.25l-1.1,3.06M121.1,99.29c-.17.45.06.54.12.62.51.37,1.03.64,1.55.94,2.78,1.47,5.4,1.9,8.14,1.9,5.58,0,9.05-2.97,9.05-7.75v-.09c0-4.42-3.91-6.03-7.58-7.18l-.48-.15c-2.77-.9-5.16-1.68-5.16-3.5v-.09c0-1.56,1.4-2.71,3.56-2.71,2.4,0,5.25.8,7.09,1.81,0,0,.54.35.74-.17.11-.28,1.04-2.78,1.13-3.06.11-.29-.08-.51-.27-.63-2.1-1.28-5-2.15-8-2.15h-.56c-5.11,0-8.68,3.09-8.68,7.51v.1c0,4.66,3.94,6.18,7.62,7.23l.59.18c2.69.82,5,1.54,5,3.42v.09c0,1.73-1.51,3.02-3.93,3.02-.94,0-3.95-.02-7.19-2.07-.39-.23-.62-.39-.92-.58-.1-.06-.57-.25-.73.25l-1.1,3.06M176.88,89.92c0,2.7-.5,4.83-1.49,6.34-.98,1.49-2.47,2.22-4.54,2.22s-3.55-.72-4.52-2.21c-.98-1.5-1.47-3.64-1.47-6.34s.5-4.82,1.47-6.31c.97-1.48,2.44-2.19,4.52-2.19s3.56.72,4.54,2.19c.99,1.49,1.49,3.61,1.49,6.31M181.54,84.92c-.46-1.55-1.17-2.91-2.12-4.05-.95-1.14-2.15-2.06-3.58-2.72-1.42-.67-3.1-1-5-1s-3.57.34-5,1c-1.42.66-2.63,1.58-3.58,2.72-.95,1.14-1.66,2.5-2.12,4.05-.46,1.54-.69,3.22-.69,5.01s.23,3.47.69,5.01c.46,1.55,1.17,2.91,2.12,4.05.95,1.14,2.16,2.05,3.58,2.7,1.43.65,3.11.98,5,.98s3.57-.33,4.99-.98c1.42-.65,2.63-1.56,3.58-2.7.95-1.14,1.66-2.5,2.12-4.05.45-1.54.68-3.22.68-5.01s-.23-3.47-.68-5.01M219.83,97.72c-.15-.45-.6-.28-.6-.28-.68.26-1.4.5-2.17.62-.78.12-1.64.18-2.55.18-2.25,0-4.05-.67-5.33-2-1.29-1.33-2.01-3.47-2-6.37,0-2.64.65-4.62,1.79-6.14,1.13-1.5,2.87-2.28,5.17-2.28,1.92,0,3.39.22,4.93.71,0,0,.37.16.54-.32.41-1.13.71-1.94,1.15-3.18.12-.36-.18-.5-.29-.55-.6-.24-2.03-.62-3.11-.79-1.01-.15-2.18-.23-3.5-.23-1.96,0-3.7.33-5.19,1-1.49.66-2.75,1.58-3.75,2.72s-1.76,2.5-2.27,4.05c-.51,1.54-.76,3.23-.76,5.02,0,3.86,1.04,6.99,3.1,9.28,2.06,2.3,5.16,3.46,9.2,3.46,2.39,0,4.84-.48,6.6-1.18,0,0,.34-.16.19-.55l-1.15-3.16M227.99,87.32c.22-1.5.63-2.75,1.28-3.72.97-1.48,2.44-2.29,4.51-2.29s3.44.81,4.42,2.29c.65.97.93,2.27,1.04,3.72h-11.3s.05,0,.05,0ZM243.69,84.02c-.4-1.49-1.38-3-2.02-3.69-1.02-1.09-2.01-1.86-3-2.28-1.43-.61-2.97-.92-4.52-.92-1.97,0-3.76.33-5.21,1.01-1.45.68-2.67,1.61-3.63,2.77-.96,1.16-1.68,2.53-2.14,4.1-.46,1.55-.69,3.25-.69,5.03s.24,3.51.71,5.04c.48,1.54,1.25,2.89,2.29,4.01,1.04,1.13,2.37,2.01,3.97,2.63,1.59.61,3.52.93,5.73.93,4.56-.01,6.96-1.03,7.94-1.58.18-.1.34-.27.13-.75l-1.03-2.89c-.16-.43-.59-.28-.59-.28-1.13.42-2.73,1.18-6.48,1.17-2.45,0-4.26-.73-5.4-1.86-1.16-1.16-1.74-2.85-1.83-5.25h15.8s.42,0,.46-.4c.02-.17.54-3.24-.47-6.79h-.02ZM101.69,87.32c.22-1.5.64-2.75,1.28-3.72.97-1.48,2.44-2.29,4.51-2.29s3.44.81,4.42,2.29c.65.97.93,2.27,1.04,3.72h-11.3s.05,0,.05,0ZM117.39,84.02c-.4-1.49-1.38-3-2.02-3.69-1.02-1.09-2.01-1.86-3-2.28-1.43-.61-2.97-.92-4.52-.92-1.97,0-3.76.33-5.21,1.01-1.45.68-2.67,1.61-3.63,2.77-.96,1.16-1.68,2.53-2.14,4.1-.46,1.55-.69,3.25-.69,5.03s.24,3.51.72,5.04c.48,1.54,1.25,2.89,2.28,4.01,1.04,1.13,2.37,2.01,3.97,2.63,1.59.61,3.51.93,5.73.93,4.56-.01,6.96-1.03,7.94-1.58.17-.1.34-.27.13-.75l-1.03-2.89c-.16-.43-.6-.28-.6-.28-1.13.42-2.73,1.18-6.48,1.17-2.44,0-4.26-.73-5.4-1.86-1.16-1.16-1.74-2.85-1.83-5.25h15.8s.42,0,.46-.4c.02-.17.54-3.24-.47-6.79h-.01ZM67.59,97.62c-.62-.49-.71-.61-.91-.94-.31-.48-.47-1.17-.47-2.05,0-1.38.46-2.38,1.41-3.05-.01,0,1.36-1.18,4.58-1.14,1.43.03,2.86.15,4.28.36v7.17h0s-2,.43-4.26.57c-3.21.19-4.63-.92-4.62-.92h0ZM73.87,86.52c-.64-.05-1.47-.07-2.46-.07-1.35,0-2.66.17-3.88.5-1.23.33-2.34.85-3.29,1.53-.95.68-1.74,1.57-2.29,2.6-.56,1.04-.84,2.26-.84,3.64s.24,2.61.72,3.6c.47.98,1.18,1.83,2.06,2.47.88.64,1.96,1.11,3.21,1.39,1.24.28,2.64.43,4.18.43,1.62,0,3.23-.14,4.79-.4,1.33-.23,2.65-.49,3.97-.77.53-.12,1.11-.28,1.11-.28.39-.1.36-.52.36-.52v-14.4c0-3.16-.85-5.51-2.52-6.96-1.66-1.45-4.09-2.18-7.24-2.18-1.18,0-3.09.16-4.23.39,0,0-3.44.67-4.86,1.78,0,0-.31.19-.14.63l1.12,3c.14.39.52.26.52.26,0,0,.12-.05.26-.13,3.03-1.65,6.87-1.6,6.87-1.6,1.7,0,3.02.35,3.9,1.02.86.66,1.3,1.66,1.3,3.76v.67c-1.35-.2-2.6-.31-2.6-.31l-.02-.04ZM200.87,78.39c.09-.22,0-.47-.22-.56,0,0,0,0-.01,0-.27-.1-1.61-.39-2.64-.45-1.98-.12-3.08.21-4.07.65-.98.44-2.06,1.15-2.66,1.97v-1.92c0-.26-.19-.48-.46-.48h-4.04c-.26,0-.45.21-.45.48v23.5c0,.26.21.48.48.48h4.14c.26,0,.48-.21.48-.48v-11.8c0-1.58.17-3.15.52-4.14.34-.98.81-1.76,1.38-2.32.55-.54,1.22-.94,1.95-1.17.69-.2,1.4-.3,2.12-.3.82,0,1.73.21,1.73.21.3.03.47-.15.58-.43.27-.72,1.04-2.88,1.19-3.31"/>
  <path class="st1" d="M162.2,67.55c-.51-.15-1.03-.28-1.56-.37-.71-.12-1.43-.17-2.14-.17-2.85,0-5.1.81-6.68,2.4-1.57,1.58-2.63,3.99-3.17,7.15l-.19,1.07h-3.58s-.44-.02-.53.46l-.59,3.28c-.04.31.09.51.51.51h3.49l-3.54,19.74c-.28,1.59-.59,2.9-.95,3.89-.35.98-.68,1.71-1.1,2.24-.4.51-.79.89-1.44,1.11-.54.18-1.17.27-1.86.27-.38,0-.89-.06-1.26-.14-.38-.07-.57-.16-.85-.28,0,0-.41-.16-.57.25-.13.33-1.06,2.89-1.17,3.21-.11.31.04.56.24.63.46.17.81.27,1.44.42.88.21,1.62.22,2.31.22,1.45,0,2.77-.2,3.87-.6,1.1-.4,2.07-1.09,2.91-2.04.92-1.01,1.5-2.08,2.05-3.53.55-1.44,1.01-3.22,1.39-5.3l3.55-20.11h5.2s.44.02.53-.46l.59-3.28c.04-.31-.09-.51-.51-.51h-5.04c.02-.11.25-1.89.83-3.56.25-.71.71-1.29,1.11-1.68.37-.38.82-.66,1.32-.82.55-.17,1.12-.25,1.69-.24.48,0,.94.06,1.3.13.49.1.68.16.81.2.51.16.58,0,.68-.24l1.21-3.31c.12-.36-.18-.51-.29-.55M91.73,101.66c0,.26-.19.48-.45.48h-4.18c-.26,0-.45-.21-.45-.48v-33.67c0-.26.19-.48.45-.48h4.18c.26,0,.45.21.45.48v33.67"/>
</svg>