<svg xmlns="http://www.w3.org/2000/svg" viewBox="0 0 24 24" id="star">
  <path d="m20.074 8.445-4.452-.647-1.991-4.035C13.322 3.138 12.697 2.75 12 2.75s-1.322.388-1.631 1.013L8.378 7.798l-4.453.647c-.689.1-1.251.574-1.467 1.237s-.039 1.377.46 1.864l3.222 3.141-.761 4.435c-.118.688.16 1.369.724 1.778.319.231.691.35 1.067.35.288 0 .579-.07.847-.211L12 18.945l3.982 2.094a1.81 1.81 0 0 0 1.915-.139 1.81 1.81 0 0 0 .724-1.778l-.761-4.435 3.222-3.141c.499-.487.676-1.201.46-1.864s-.777-1.137-1.468-1.237" style="fill:#fdbd22;stroke-width:0"></path>
</svg>
