<?xml version="1.0" encoding="UTF-8"?>
<svg id="Layer_1" xmlns="http://www.w3.org/2000/svg" xmlns:v="https://vecta.io/nano" version="1.1" viewBox="0 0 372 340">
  <!-- Generator: Adobe Illustrator 29.8.1, SVG Export Plug-In . SVG Version: 2.1.1 Build 2)  -->
  <defs>
    <style>
      .st0 {
        fill: #fdbd0c;
      }

      .st1 {
        fill: #d3e9cc;
      }

      .st2 {
        fill: #fde1ca;
      }

      .st3 {
        fill: #6db4dd;
      }

      .st4 {
        fill: none;
        stroke: #241f20;
        stroke-width: 5.45px;
      }

      .st5 {
        fill: #fff;
        isolation: isolate;
        opacity: .3;
      }
    </style>
  </defs>
  <path class="st2" d="M186.03,143.4c21.18,16.69,35.78,41.23,39.95,69.15,35.46-13.8,61.93-45.72,67.7-84.55-12.51-5.13-26.15-7.86-40.59-7.86-25.35,0-48.61,8.82-67.06,23.42v-.16h0Z"/>
  <path class="st3" d="M146.24,212.06c4.17-27.76,18.77-51.98,39.79-68.51-18.45-14.6-41.71-23.42-67.06-23.42s-26.95,2.73-39.15,7.38c5.62,38.5,31.45,70.43,66.42,84.55Z"/>
  <path class="st1" d="M227.26,228.43c0-5.45-.48-10.59-1.28-15.88-12.19,4.65-25.35,7.38-39.15,7.38s-28.08-2.89-40.59-7.86c-.8,5.29-1.28,10.75-1.28,16.36,0,34.49,16.2,64.98,41.23,84.87,25.03-19.89,41.23-50.38,41.23-84.87h-.16,0Z"/>
  <path class="st0" d="M186.03,143.4c-21.02,16.69-35.62,40.91-39.79,68.51,12.51,5.13,26.15,7.86,40.59,7.86s26.95-2.73,39.15-7.38c-4.17-27.92-18.77-52.3-39.95-69.15v.16Z"/>
  <g>
    <path class="st5" d="M186.03,143.4c18.45-14.6,41.71-23.42,67.06-23.42s28.08,2.89,40.59,7.86c.8-5.29,1.28-10.75,1.28-16.36,0-59.84-48.45-108.29-108.29-108.29s-108.29,48.45-108.29,108.29.48,10.59,1.28,15.88c12.19-4.65,25.35-7.38,39.15-7.38,25.35,0,48.61,8.82,67.06,23.42h.16,0Z"/>
    <path class="st5" d="M293.68,128c-5.86,38.25-31.65,70.48-67.7,84.55.8,5.13,1.28,10.43,1.28,15.88,0,34.49-16.2,64.98-41.23,84.87,18.45,14.6,41.71,23.42,67.06,23.42,59.84,0,108.29-48.45,108.29-108.29s-28.08-84.23-67.7-100.27v-.16h0ZM144.8,228.43c0-5.62.48-10.91,1.28-16.36-34.98-14.12-60.81-46.05-66.42-84.55-40.43,15.72-69.15,54.87-69.15,100.91s48.45,108.29,108.29,108.29,48.61-8.82,67.06-23.42c-25.03-19.89-41.23-50.38-41.23-84.87h.16,0Z"/>
  </g>
  <g>
    <circle class="st4" cx="186.83" cy="111.63" r="108.29"/>
    <circle class="st4" cx="253.09" cy="228.43" r="108.29"/>
    <circle class="st4" cx="118.97" cy="228.43" r="108.29"/>
  </g>
</svg>