<?xml version="1.0" encoding="UTF-8"?>
<svg id="Layer_1" xmlns="http://www.w3.org/2000/svg" xmlns:v="https://vecta.io/nano" version="1.1" viewBox="0 0 372 340">
  <!-- Generator: Adobe Illustrator 29.8.1, SVG Export Plug-In . SVG Version: 2.1.1 Build 2)  -->
  <defs>
    <style>
      .st0 {
        fill: #fdbd0c;
      }

      .st1 {
        fill: #d3e9cc;
      }

      .st2, .st3 {
        fill: #fff;
      }

      .st4 {
        fill: none;
        stroke: #000;
        stroke-linejoin: round;
        stroke-width: 4.98px;
      }

      .st5 {
        fill: #fde1ca;
      }

      .st6 {
        fill: #6db4dd;
      }

      .st3 {
        isolation: isolate;
        opacity: .3;
      }
    </style>
  </defs>
  <path class="st1" d="M224.74,74.04c-7.39-26.68-20.57-50.79-38.42-70.89-17.68,20.09-31.02,44.2-38.42,70.72,12.06-3.54,24.91-5.47,38.09-5.47s26.52,1.93,38.74,5.63h0Z"/>
  <g>
    <path class="st2" d="M150.32,177.23c11.57-2.25,23.47-3.54,35.68-3.54s24.59,1.29,36.33,3.7c5.63-17.52,8.84-36.01,8.84-55.45s-2.25-32.63-6.43-47.9c-12.22-3.7-25.24-5.63-38.74-5.63s-26.04,1.93-38.09,5.47c-4.18,15.27-6.43,31.34-6.43,48.06s3.21,37.93,8.84,55.29Z"/>
    <path class="st3" d="M222.33,177.39c37.13,7.55,70.08,26.68,95,53.37,1.93-9,2.89-18.48,2.89-27.97,0-60.76-40.35-112.03-95.48-128.59,4.18,15.27,6.43,31.34,6.43,47.9s-3.21,37.93-8.84,55.45v-.16Z"/>
  </g>
  <path class="st0" d="M150.32,177.23c7.72,23.63,19.93,45.01,36.01,63.17,15.91-18.16,28.29-39.54,36.01-63.17-11.73-2.41-23.79-3.7-36.33-3.7s-24.11,1.29-35.68,3.54v.16h0Z"/>
  <path class="st6" d="M14.97,297.95c11.73,2.41,23.95,3.7,36.49,3.7s26.68-1.45,39.38-4.34c-17.84-18-30.7-40.99-36.17-66.71-17.84,18.97-31.5,41.95-39.7,67.19v.16h0Z"/>
  <path class="st5" d="M317.32,230.6c-5.47,25.72-18.16,48.54-36.01,66.55,12.86,2.89,26.2,4.5,39.86,4.5s24.27-1.29,35.84-3.54c-8.2-25.4-21.86-48.38-39.7-67.35v-.16h0Z"/>
  <g>
    <path class="st2" d="M222.33,177.39c-7.72,23.63-19.93,45.01-36.01,63.17,24.59,27.97,57.54,48.22,95,56.74,17.84-18,30.54-40.83,36.01-66.55-24.91-26.68-57.87-45.65-95-53.37h0Z"/>
    <path class="st3" d="M186.32,240.4c-24.59,27.97-57.87,48.38-95.48,56.9,24.27,24.43,58.03,39.54,95.16,39.54s71.05-15.27,95.32-39.7c-37.45-8.52-70.4-28.77-95-56.74h0Z"/>
    <path class="st2" d="M186.32,240.4c-16.07-18.16-28.45-39.7-36.01-63.17-37.45,7.55-70.56,26.68-95.64,53.53,5.47,25.72,18.32,48.7,36.17,66.71,37.77-8.36,70.89-28.77,95.48-56.9v-.16h0Z"/>
    <path class="st3" d="M150.32,177.23c-5.63-17.52-8.84-36.01-8.84-55.29s2.25-32.79,6.43-48.06c-55.62,16.4-96.28,67.83-96.28,128.75s.96,18.97,2.89,27.97c25.08-26.84,58.19-45.97,95.64-53.53l.16.16h0Z"/>
  </g>
  <path class="st4" d="M224.74,74.04c-7.39-26.68-20.57-50.79-38.42-70.89-17.68,20.09-31.02,44.2-38.42,70.72M224.74,74.04c-12.22-3.7-25.24-5.63-38.74-5.63s-26.04,1.93-38.09,5.47M224.74,74.04c55.29,16.56,95.48,67.83,95.48,128.59s-.96,18.97-2.89,27.97M224.74,74.04c4.18,15.27,6.43,31.34,6.43,47.9,0,85.67-60.12,157.52-140.32,175.37M147.9,73.88c-55.62,16.4-96.28,67.83-96.28,128.75s.96,18.97,2.89,27.97M147.9,73.88c-4.18,15.27-6.43,31.34-6.43,48.06,0,85.51,59.79,157.2,139.84,175.37M317.32,230.6c17.84,18.97,31.5,41.95,39.7,67.35-11.57,2.41-23.63,3.54-35.84,3.54s-27-1.61-39.86-4.5M317.32,230.6c-5.47,25.72-18.16,48.54-36.01,66.55M317.32,230.6c-32.79-35.04-79.57-57.06-131.32-57.06s-98.53,21.86-131.32,57.06M281.32,297.14c-24.27,24.59-58.03,39.7-95.32,39.7s-70.89-15.11-95.16-39.54M90.84,297.3c-12.7,2.89-25.88,4.34-39.38,4.34s-24.75-1.29-36.49-3.7c8.2-25.4,21.86-48.22,39.7-67.19M90.84,297.3c-17.84-18-30.7-40.99-36.17-66.71"/>
</svg>